<svg width="20" height="20" viewBox="0 0 20 20" fill="none" xmlns="http://www.w3.org/2000/svg">
<path d="M17.8288 14.0942C16.5689 13.0292 15.8464 11.4725 15.8464 9.8233V7.5C15.8464 4.56757 13.6681 2.14005 10.8464 1.7334V0.833282C10.8464 0.372467 10.473 0 10.013 0C9.55307 0 9.17969 0.372467 9.17969 0.833282V1.7334C6.35712 2.14005 4.17969 4.56757 4.17969 7.5V9.8233C4.17969 11.4725 3.45718 13.0292 2.18964 14.1008C1.86554 14.3784 1.67969 14.7816 1.67969 15.2083C1.67969 16.0126 2.33383 16.6667 3.13797 16.6667H16.888C17.6923 16.6667 18.3464 16.0126 18.3464 15.2083C18.3464 14.7816 18.1606 14.3784 17.8288 14.0942Z" fill="white"/>
<path d="M10.0128 20C11.5221 20 12.7846 18.9241 13.0745 17.5H6.95117C7.24124 18.9241 8.50375 20 10.0128 20Z" fill="white"/>
</svg>
