<svg width="20" height="20" viewBox="0 0 20 20" fill="none" xmlns="http://www.w3.org/2000/svg">
<path d="M17.5 2.5H16.6667V0.833282C16.6667 0.373383 16.2933 0 15.8333 0H15C14.5399 0 14.1667 0.373383 14.1667 0.833282V2.5H5.83328V0.833282C5.83328 0.373383 5.46005 0 5 0H4.16672C3.70667 0 3.33328 0.373383 3.33328 0.833282V2.5H2.5C1.12167 2.5 0 3.62167 0 5V17.5C0 18.8783 1.12167 20 2.5 20H17.5C18.8783 20 20 18.8783 20 17.5V5C20 3.62167 18.8783 2.5 17.5 2.5ZM18.3333 17.5C18.3333 17.9591 17.9591 18.3333 17.5 18.3333H2.5C2.04086 18.3333 1.66672 17.9591 1.66672 17.5V8.3667H18.3333V17.5Z" fill="white"/>
<rect x="3" y="10" width="3.5" height="2.5" rx="0.8" fill="white"/>
<rect x="8" y="10" width="3.5" height="2.5" rx="0.8" fill="white"/>
<rect x="13" y="10" width="3.5" height="2.5" rx="0.8" fill="white"/>
<rect x="3" y="14" width="3.5" height="2.5" rx="0.8" fill="white"/>
<rect x="8" y="14" width="3.5" height="2.5" rx="0.8" fill="white"/>
</svg>
