<svg width="20" height="20" viewBox="0 0 20 20" fill="none" xmlns="http://www.w3.org/2000/svg">
<path d="M16.6667 4.02305V2.2682C17.1624 1.97918 17.5 1.44762 17.5 0.83332V0.41668C17.5 0.186367 17.3136 0 17.0833 0H2.91668C2.68637 0 2.5 0.186367 2.5 0.41668V0.833359C2.5 1.44762 2.83758 1.97918 3.33332 2.26824V4.02305C3.33332 5.67426 4.03727 7.25465 5.26449 8.35898L7.08781 10L5.26449 11.641C4.03727 12.7454 3.33332 14.3257 3.33332 15.977V17.7318C2.83758 18.0208 2.5 18.5524 2.5 19.1667V19.5834C2.5 19.8136 2.68637 20 2.91668 20H17.0834C17.3137 20 17.5 19.8136 17.5 19.5833V19.1666C17.5 18.5524 17.1625 18.0208 16.6667 17.7318V15.977C16.6667 14.3257 15.9628 12.7454 14.7355 11.641L12.9122 10L14.7355 8.35898C15.9627 7.25465 16.6667 5.67422 16.6667 4.02305ZM13.6206 7.12035L11.1092 9.3807C10.9334 9.53859 10.8333 9.76359 10.8333 10C10.8333 10.2364 10.9334 10.4614 11.1092 10.6193L13.6206 12.8796C14.4971 13.6686 15 14.7978 15 15.977V17.5H13.9581L10.3332 12.6668C10.1762 12.4569 9.82379 12.4569 9.66672 12.6668L6.04187 17.5H5V15.977C5 14.7977 5.50293 13.6686 6.37941 12.8796L8.89082 10.6193C9.0666 10.4614 9.16672 10.2364 9.16672 9.99996C9.16672 9.76355 9.0666 9.53852 8.89082 9.38066L6.37941 7.12031C5.50293 6.33137 5 5.20223 5 4.02305V2.5H15V4.02305C15 5.20223 14.4971 6.33137 13.6206 7.12035Z" fill="#43D190"/>
<path d="M12.8718 5.8335H7.12755C6.96275 5.8335 6.81341 5.93076 6.7467 6.08131C6.67998 6.23229 6.70802 6.40807 6.81912 6.53014L9.72032 9.20674C9.79966 9.27877 9.89977 9.31455 9.99985 9.31455C10.0999 9.31455 10.2 9.27873 10.2794 9.20674L13.1802 6.53014C13.2913 6.40807 13.3193 6.23229 13.2526 6.08131C13.1859 5.93076 13.0366 5.8335 12.8718 5.8335Z" fill="#43D190"/>
</svg>
