<svg width="20" height="20" viewBox="0 0 20 20" fill="none" xmlns="http://www.w3.org/2000/svg">
<path d="M19 1H16V0H4V1H1C0.4 1 0 1.4 0 2V4.4C0 6.7 1.7 8.6 4 8.9V9C4 11.9 6 14.3 8.7 14.9L8 17H5.7C5.3 17 4.9 17.3 4.8 17.7L4 20H16L15.2 17.7C15.1 17.3 14.7 17 14.3 17H12L11.3 14.9C14 14.3 16 11.9 16 9V8.9C18.3 8.6 20 6.7 20 4.4V2C20 1.4 19.6 1 19 1ZM4 6.9C2.9 6.6 2 5.6 2 4.4V3H4V6.9ZM12 10L10 8.9L8 10L8.5 8L7 6H9.1L10 4L10.9 6H13L11.5 8L12 10ZM18 4.4C18 5.6 17.1 6.7 16 6.9V3H18V4.4Z" fill="white"/>
</svg>
