<svg width="121" height="50" viewBox="0 0 121 50" fill="none" xmlns="http://www.w3.org/2000/svg">
<path d="M15.1496 0.286431V13.7275H12.9404V4.52182L8.83203 13.7275H7.30107L3.1733 4.52182V13.7275H0.964078V0.286431H3.34772L8.07624 10.8265L12.7854 0.286431H15.1496Z" fill="#4F4F4F"/>
<path d="M33.7311 10.9813H28.0918L27.1228 13.7275H24.8167L29.6421 0.26709H32.2001L37.0256 13.7275H34.7001L33.7311 10.9813ZM33.111 9.18267L30.9211 2.93596L28.7119 9.18267H33.111Z" fill="#4F4F4F"/>
<path d="M54.1038 13.7275L48.8908 7.71286V13.7275H46.6815V0.286431H48.8908V6.4171L54.1231 0.286431H56.8944L51.0419 7.01663L56.9913 13.7275H54.1038Z" fill="#4F4F4F"/>
<path d="M68.712 2.06568V6.01097H73.363V7.80956H68.712V11.9289H73.9444V13.7275H66.5028V0.26709H73.9444V2.06568H68.712Z" fill="#4F4F4F"/>
<path d="M99.0246 0.286431V13.7275H96.8153V0.286431H99.0246Z" fill="#4F4F4F"/>
<path d="M118.184 0.286431V2.08502H114.599V13.7275H112.39V2.08502H108.785V0.286431H118.184Z" fill="#4F4F4F"/>
<path d="M0.933105 22.1241H6.43239V29.1876H23.2945V22.1241H28.8112V49.1835H23.2945V33.8793H6.43239V49.1835H0.933105V22.1241Z" fill="#4F4F4F"/>
<path d="M34.9003 42.7433C34.9003 41.7622 35.1143 40.8678 35.5422 40.0598C35.9701 39.2519 36.612 38.5594 37.4678 37.9823C38.3236 37.3937 39.3876 36.9436 40.6598 36.632C41.9435 36.3088 43.4355 36.1472 45.1356 36.1472C46.3962 36.1472 47.7204 36.2395 49.1082 36.4242C50.5076 36.6089 51.9475 36.8916 53.4279 37.2725C53.37 36.6262 53.1734 36.0318 52.838 35.4893C52.5026 34.9353 52.0342 34.4621 51.4328 34.0697C50.843 33.6657 50.126 33.3541 49.2817 33.1348C48.449 32.9155 47.5007 32.8059 46.4366 32.8059C45.8584 32.8059 45.2223 32.8405 44.5284 32.9098C43.8345 32.979 43.1174 33.0829 42.3772 33.2214C41.6371 33.3599 40.9027 33.533 40.1741 33.7408C39.457 33.9485 38.7862 34.1967 38.1617 34.4852L36.6004 30.2783C37.3753 30.0013 38.2022 29.7473 39.0811 29.5165C39.9717 29.2857 40.8795 29.0895 41.8048 28.9279C42.73 28.7548 43.6552 28.622 44.5804 28.5297C45.5056 28.4374 46.402 28.3912 47.2693 28.3912C51.0975 28.3912 53.9425 29.3665 55.8045 31.317C57.6665 33.2676 58.5975 36.2569 58.5975 40.2849V49.1835H53.4626V47.2618C52.9305 47.5735 52.3465 47.8678 51.7104 48.1448C51.0859 48.4218 50.4035 48.6642 49.6634 48.8719C48.9232 49.0797 48.1252 49.2412 47.2693 49.3567C46.4251 49.4836 45.5288 49.5471 44.5804 49.5471C42.9844 49.5471 41.5792 49.374 40.3649 49.0277C39.1621 48.6815 38.1559 48.2025 37.3464 47.5908C36.5368 46.9791 35.9238 46.2635 35.5075 45.444C35.1027 44.613 34.9003 43.7128 34.9003 42.7433ZM40.3128 42.5701C40.3128 42.9049 40.3996 43.228 40.5731 43.5396C40.7465 43.8397 41.0241 44.111 41.4058 44.3533C41.7874 44.5842 42.2732 44.7746 42.863 44.9247C43.4644 45.0632 44.1872 45.1324 45.0315 45.1324C45.9336 45.1324 46.8067 45.0516 47.651 44.89C48.4953 44.7284 49.2817 44.5149 50.0103 44.2495C50.7389 43.984 51.3981 43.6782 51.988 43.3319C52.5778 42.9856 53.0693 42.6279 53.4626 42.2585V41.3583C52.6761 41.139 51.8955 40.9543 51.1206 40.8043C50.3573 40.6542 49.6229 40.5388 48.9174 40.458C48.2235 40.3657 47.5643 40.3022 46.9397 40.2676C46.3268 40.233 45.789 40.2156 45.3264 40.2156C44.3665 40.2156 43.5685 40.2791 42.9324 40.4061C42.2963 40.533 41.7816 40.7062 41.3884 40.9255C40.9952 41.1332 40.7176 41.3814 40.5557 41.6699C40.3938 41.9584 40.3128 42.2585 40.3128 42.5701Z" fill="#4F4F4F"/>
<path d="M65.2591 20.4621H70.3941V30.6765C70.8451 30.3648 71.3772 30.0705 71.9901 29.7935C72.6031 29.5165 73.2623 29.2741 73.9678 29.0664C74.6732 28.8586 75.4019 28.6971 76.1536 28.5816C76.9053 28.4547 77.6571 28.3912 78.4088 28.3912C80.1436 28.3912 81.7338 28.6451 83.1795 29.1529C84.6367 29.6608 85.8858 30.3764 86.9267 31.2997C87.9675 32.223 88.7771 33.331 89.3554 34.6237C89.9452 35.9048 90.2401 37.3245 90.2401 38.8826C90.2401 40.51 89.9336 41.9815 89.3207 43.2973C88.7077 44.6015 87.8577 45.721 86.7705 46.6559C85.695 47.5792 84.4112 48.2948 82.9193 48.8027C81.4389 49.2989 79.8314 49.5471 78.0966 49.5471C77.3564 49.5471 76.622 49.5009 75.8934 49.4086C75.1763 49.3163 74.4824 49.1893 73.8116 49.0277C73.1524 48.8661 72.5279 48.6757 71.9381 48.4564C71.3598 48.2256 70.8451 47.9774 70.3941 47.712V49.1835H65.2591V20.4621ZM70.3941 42.7606C70.9145 43.1761 71.4639 43.5281 72.0422 43.8167C72.6204 44.1052 73.2102 44.3418 73.8116 44.5265C74.413 44.7111 75.0202 44.8496 75.6332 44.942C76.2461 45.0228 76.8417 45.0632 77.42 45.0632C78.5997 45.0632 79.6463 44.9073 80.56 44.5957C81.4852 44.2725 82.2601 43.834 82.8846 43.28C83.5207 42.726 84.0064 42.0739 84.3418 41.3237C84.6772 40.5734 84.8449 39.7598 84.8449 38.8826C84.8449 38.0631 84.6772 37.2898 84.3418 36.5627C84.018 35.8356 83.5438 35.2008 82.9193 34.6583C82.3063 34.1043 81.5604 33.6715 80.6814 33.3599C79.814 33.0367 78.8367 32.8751 77.7496 32.8751C77.0557 32.8751 76.3618 32.9444 75.6679 33.0829C74.9739 33.2098 74.3032 33.3945 73.6555 33.6369C73.0194 33.8793 72.418 34.1736 71.8513 34.5198C71.2962 34.8661 70.8104 35.2527 70.3941 35.6798V42.7606Z" fill="#4F4F4F"/>
<path d="M97.6997 25.9674C97.1908 25.9674 96.7282 25.8982 96.3119 25.7597C95.9071 25.6097 95.5601 25.4134 95.271 25.1711C94.9819 24.9172 94.7563 24.6286 94.5944 24.3054C94.4441 23.9707 94.3689 23.6187 94.3689 23.2494C94.3689 22.8685 94.4441 22.5165 94.5944 22.1933C94.7563 21.8586 94.9819 21.5701 95.271 21.3277C95.5601 21.0853 95.9071 20.8949 96.3119 20.7564C96.7282 20.6063 97.1908 20.5313 97.6997 20.5313C98.2201 20.5313 98.6827 20.6063 99.0875 20.7564C99.5039 20.8949 99.8566 21.0853 100.146 21.3277C100.435 21.5701 100.655 21.8586 100.805 22.1933C100.967 22.5165 101.048 22.8685 101.048 23.2494C101.048 23.6187 100.967 23.9707 100.805 24.3054C100.655 24.6286 100.435 24.9172 100.146 25.1711C99.8566 25.4134 99.5039 25.6097 99.0875 25.7597C98.6827 25.8982 98.2201 25.9674 97.6997 25.9674ZM95.1322 28.7548H100.267V49.1835H95.1322V28.7548Z" fill="#4F4F4F"/>
<path d="M109.947 32.5981H105.003V28.7548H109.947V22.4011H115.082V28.7548H120.026V32.5981H115.082V49.1835H109.947V32.5981Z" fill="#4F4F4F"/>
</svg>
