<svg width="50" height="50" viewBox="0 0 50 50" fill="none" xmlns="http://www.w3.org/2000/svg">
<path fill-rule="evenodd" clip-rule="evenodd" d="M13.7066 0.640137C6.49004 0.640137 0.639893 6.49028 0.639893 13.7068V36.4801C0.639893 43.6967 6.49004 49.5468 13.7066 49.5468H36.4799C43.6964 49.5468 49.5466 43.6967 49.5466 36.4801V24.3434C49.5466 21.0274 45.546 19.3572 43.1881 21.6888L27.6482 37.0562C26.1932 38.4951 23.8509 38.4945 22.3966 37.0548L9.97079 24.754C8.53378 23.3314 8.53557 21.0091 9.97477 19.5887C11.3911 18.191 13.6685 18.1935 15.0818 19.5943L23.7089 28.1455C24.436 28.8662 25.608 28.8668 26.3358 28.1468L45.6209 9.0674C46.8427 7.85864 47.1189 5.92796 45.932 4.68488C43.5526 2.19273 40.1976 0.640137 36.4799 0.640137H13.7066Z" fill="white"/>
</svg>
