<svg width="197" height="129" viewBox="0 0 197 129" fill="none" xmlns="http://www.w3.org/2000/svg">
<g clip-path="url(#clip0)">
<path d="M35.6933 109.627C39.2234 107.14 40.4328 104.096 40.825 99.7766C41.2172 95.4569 39.6483 91.0064 36.6412 87.9303C34.1243 85.3451 30.6596 83.6434 28.7638 80.5673C26.7699 77.2948 26.8353 72.8116 24.057 70.1609C22.1612 68.3283 19.3501 67.8375 17.0294 66.5939C15.1336 65.5795 13.5647 64.0414 11.8323 62.7324C10.0999 61.4562 8.0407 60.3763 5.88341 60.5399C2.68016 60.769 0.163319 63.976 -0.000112691 67.2157C-0.163544 70.4554 1.66689 73.5643 4.15104 75.6913C5.94878 77.2294 8.17145 78.3748 9.34816 80.4364C11.5708 84.2652 9.25009 89.5993 11.6362 93.3626C13.3686 96.0787 17.2909 97.3877 17.8466 100.595C18.0427 101.773 17.7158 102.951 17.7158 104.162C17.7485 107.892 21.2133 110.87 24.8741 111.557C28.5023 112.179 32.2612 111.001 35.6933 109.627Z" fill="#6CDCA9"/>
<path d="M12.9434 73.6299C12.9434 73.6299 13.0741 73.7936 13.3356 74.0554C13.6298 74.3499 14.022 74.7426 14.5123 75.2334C15.0353 75.7243 15.6563 76.3788 16.3427 77.1315C17.0291 77.8841 17.8463 78.735 18.6635 79.7494C19.0884 80.2403 19.5133 80.7639 19.9709 81.3202C20.4285 81.8765 20.8534 82.4656 21.311 83.0546C22.2589 84.2654 23.1415 85.6071 24.0894 87.0143C25.9198 89.894 27.7829 93.1665 29.4172 96.7662C31.0189 100.366 32.2282 103.933 33.1761 107.238C33.6011 108.907 34.026 110.478 34.2875 111.95C34.4182 112.703 34.6143 113.423 34.7124 114.11C34.8105 114.797 34.9085 115.485 35.0066 116.106C35.2354 117.383 35.3008 118.561 35.4315 119.575C35.5622 120.59 35.5949 121.473 35.6276 122.193C35.6603 122.88 35.693 123.437 35.7257 123.862C35.7584 124.255 35.791 124.451 35.791 124.451C35.791 124.451 35.8237 124.255 35.8237 123.862C35.8237 123.437 35.8237 122.88 35.791 122.193C35.791 121.473 35.7584 120.59 35.6603 119.542C35.5622 118.528 35.5296 117.35 35.3008 116.041C35.2027 115.386 35.1046 114.732 35.0393 114.012C34.9412 113.325 34.7778 112.605 34.647 111.852C34.3855 110.347 33.9606 108.776 33.5684 107.107C32.6532 103.802 31.4438 100.202 29.8095 96.5698C28.1752 92.9701 26.312 89.665 24.4162 86.7852C23.4356 85.378 22.5531 84.0036 21.5725 82.8255C21.1149 82.2365 20.6573 81.6147 20.1997 81.0911C19.7421 80.5675 19.2845 80.0439 18.8596 79.5531C18.0424 78.5386 17.1926 77.7205 16.4735 76.9678C15.7871 76.2152 15.1333 75.5934 14.5777 75.1025C14.0547 74.6444 13.6625 74.2517 13.3356 73.9899C13.1068 73.7281 12.9434 73.5972 12.9434 73.6299Z" fill="#CBF7E3"/>
<path d="M194.646 45.9448C194.646 45.9448 191.541 43.8831 187.717 51.3443C183.925 58.8055 182.487 63.1251 182.487 63.1251C182.487 63.1251 181.474 64.6959 180.395 63.6815C179.316 62.667 177.846 59.7545 176.015 60.2781C174.119 60.8344 173.498 62.9288 173.858 66.0376C174.217 69.1465 174.773 75.9859 174.806 76.6076C174.838 77.2294 174.512 78.113 173.662 77.5239C172.812 76.9349 167.974 71.5353 165.555 73.9897C163.137 76.444 165.555 84.9524 165.817 85.8687C166.078 86.8177 165.882 87.2104 165.425 87.4394C164.967 87.6685 163.529 85.705 162.091 84.2324C160.653 82.7598 158.724 81.2872 157.449 82.8253C156.175 84.3633 155.75 90.7446 161.829 101.086L164.934 105.7L170.524 105.405C182.422 103.998 187.259 99.842 187.717 97.9113C188.174 95.9478 185.854 95.2933 183.794 95.0315C181.735 94.7697 179.284 94.8025 179.218 94.3116C179.12 93.8207 179.349 93.428 180.232 93.0681C181.114 92.7081 189.351 89.5338 189.841 86.0977C190.332 82.6944 183.108 82.0726 182.127 81.7454C181.147 81.4181 181.67 80.6 182.16 80.2728C182.683 79.9455 188.469 76.2477 191.149 74.6769C193.829 73.1061 195.169 71.339 194.45 69.4737C193.764 67.7066 190.56 68.2629 189.122 68.0338C187.651 67.8047 188.305 66.0376 188.305 66.0376C188.305 66.0376 190.887 62.307 194.548 54.7477C198.209 47.221 194.581 45.9448 194.581 45.9448" fill="#6CDCA9"/>
<path d="M191.247 52.6211C191.247 52.6211 191.214 52.6865 191.182 52.7847C191.116 52.8829 191.051 53.0465 190.953 53.2429C190.757 53.6683 190.462 54.2573 190.103 55.0427C189.351 56.5808 188.272 58.8387 186.9 61.5876C184.187 67.1181 180.362 74.7101 176.146 83.0876C171.897 91.4651 168.072 99.0572 165.327 104.555C163.954 107.304 162.843 109.529 162.091 111.067C161.698 111.82 161.404 112.441 161.208 112.834C161.11 113.031 161.045 113.194 160.979 113.292C160.914 113.391 160.881 113.456 160.881 113.456C160.881 113.456 160.914 113.391 160.947 113.292C161.012 113.194 161.077 113.031 161.176 112.834C161.372 112.409 161.666 111.82 162.025 111.034C162.777 109.496 163.856 107.238 165.229 104.489C167.942 98.959 171.766 91.3669 175.982 82.9894C180.232 74.612 184.056 67.0199 186.802 61.5222C188.174 58.7733 189.286 56.548 190.037 55.01C190.43 54.2573 190.724 53.6356 190.92 53.2429C191.018 53.0465 191.083 52.8829 191.149 52.7847C191.214 52.6865 191.247 52.6211 191.247 52.6211Z" fill="#CBF7E3"/>
<path d="M177.943 64.4014C177.943 64.4014 178.009 64.5323 178.074 64.7941C178.139 65.0559 178.27 65.3831 178.401 65.8412C178.662 66.7248 178.957 67.9683 179.283 69.3428C179.61 70.6845 179.872 71.928 180.101 72.877C180.199 73.3024 180.297 73.6624 180.362 73.9569C180.427 74.2187 180.46 74.3496 180.428 74.3496C180.428 74.3496 180.362 74.2187 180.297 73.9569C180.231 73.6951 180.101 73.3352 180.003 72.9097C179.774 72.0262 179.447 70.7826 179.12 69.4082C178.793 68.0665 178.499 66.823 178.27 65.9067C178.172 65.4813 178.074 65.1213 178.009 64.8595C177.976 64.565 177.943 64.4014 177.943 64.4014Z" fill="#CBF7E3"/>
<path d="M180.951 74.4148C180.951 74.382 183.468 73.5966 186.573 72.7131C189.711 71.8295 192.227 71.1096 192.26 71.175C192.26 71.2078 189.743 71.9931 186.638 72.8767C183.5 73.7603 180.983 74.4475 180.951 74.4148Z" fill="#CBF7E3"/>
<path d="M173.858 86.9812C173.858 86.9812 173.989 86.9485 174.283 86.9485C174.577 86.9485 174.969 86.9485 175.394 86.9485C176.342 86.9485 177.65 86.9485 179.088 86.883C180.526 86.8176 181.833 86.7521 182.749 86.654C183.206 86.6212 183.566 86.5885 183.86 86.5558C184.121 86.5231 184.285 86.5231 184.285 86.5558C184.285 86.5558 184.154 86.5885 183.893 86.6212C183.631 86.654 183.239 86.7194 182.781 86.7521C181.833 86.8503 180.559 86.9812 179.088 87.0139C177.65 87.0794 176.342 87.0467 175.394 87.0139C174.937 86.9812 174.544 86.9812 174.283 86.9485C174.021 87.0139 173.858 87.0139 173.858 86.9812Z" fill="#CBF7E3"/>
<path d="M169.151 78.5381C169.151 78.5381 169.249 78.6363 169.38 78.8653C169.51 79.0944 169.707 79.3889 169.903 79.7489C170.36 80.5016 170.949 81.5487 171.635 82.6941C172.289 83.8395 172.877 84.8866 173.302 85.672C173.498 86.032 173.662 86.3265 173.792 86.5883C173.89 86.8174 173.956 86.9156 173.956 86.9483C173.956 86.9483 173.858 86.8501 173.727 86.621C173.596 86.392 173.4 86.0975 173.204 85.7375C172.746 84.9848 172.158 83.9376 171.472 82.7923C170.818 81.6469 170.23 80.5997 169.805 79.8143C169.608 79.4544 169.445 79.1599 169.314 78.8981C169.216 78.669 169.151 78.5381 169.151 78.5381Z" fill="#CBF7E3"/>
<path d="M161.502 88.8467C161.502 88.8467 161.6 88.9776 161.764 89.2394C161.96 89.5339 162.189 89.9266 162.45 90.352C163.039 91.301 163.823 92.6427 164.673 94.1153C165.523 95.5879 166.307 96.9296 166.863 97.8786C167.124 98.3368 167.353 98.7295 167.517 99.024C167.68 99.2858 167.745 99.4494 167.745 99.4494C167.745 99.4494 167.647 99.3185 167.484 99.0567C167.288 98.7622 167.059 98.3695 166.797 97.9441C166.209 96.9951 165.425 95.6534 164.575 94.1808C163.725 92.7082 162.941 91.3665 162.385 90.4175C162.123 89.9593 161.895 89.5666 161.731 89.2721C161.568 89.0103 161.47 88.8467 161.502 88.8467Z" fill="#CBF7E3"/>
<path d="M167.68 99.1878C167.68 99.1878 167.876 99.155 168.203 99.155C168.563 99.155 169.053 99.1223 169.609 99.1223C170.818 99.0896 172.452 99.0241 174.283 98.8932C176.113 98.7623 177.748 98.6314 178.924 98.5005C179.48 98.4351 179.97 98.4024 180.33 98.3696C180.657 98.3369 180.853 98.3369 180.853 98.3369C180.853 98.3369 180.657 98.3696 180.33 98.4351C180.003 98.5005 179.513 98.566 178.924 98.6314C177.748 98.7951 176.081 98.9587 174.283 99.0569C172.452 99.1878 170.818 99.2205 169.609 99.2205C169.02 99.2205 168.53 99.2205 168.203 99.2205C167.844 99.2205 167.68 99.2205 167.68 99.1878Z" fill="#CBF7E3"/>
<path d="M127.444 8.37695H149.899C150.88 8.37695 151.664 9.16234 151.664 10.1441V25.0337C151.664 26.0155 150.88 26.8008 149.899 26.8008H138.067L132.445 32.4295V26.8008H127.444C126.725 26.8008 126.136 26.2118 126.136 25.4919V9.68593C126.136 8.96599 126.725 8.37695 127.444 8.37695Z" fill="#CBF7E3"/>
<path d="M134.896 17.8998C134.896 18.6197 134.308 19.2088 133.589 19.2088C132.87 19.2088 132.281 18.6197 132.281 17.8998C132.281 17.1799 132.87 16.5908 133.589 16.5908C134.308 16.5908 134.896 17.1799 134.896 17.8998Z" fill="#FAFAFA"/>
<path d="M140.126 17.8998C140.126 18.6197 139.538 19.2088 138.819 19.2088C138.1 19.2088 137.511 18.6197 137.511 17.8998C137.511 17.1799 138.1 16.5908 138.819 16.5908C139.538 16.5908 140.126 17.1799 140.126 17.8998Z" fill="#FAFAFA"/>
<path d="M145.356 17.8998C145.356 18.6197 144.767 19.2088 144.048 19.2088C143.329 19.2088 142.741 18.6197 142.741 17.8998C142.741 17.1799 143.329 16.5908 144.048 16.5908C144.767 16.5908 145.356 17.1799 145.356 17.8998Z" fill="#FAFAFA"/>
<path d="M163.921 120.786C158.299 115.321 158.201 106.845 159.672 99.5149C159.901 98.2714 159.999 96.9624 160.751 95.9806C161.503 94.9989 163.006 94.4753 164.019 95.1625C164.869 95.7516 165.098 96.8642 165.458 97.846C165.948 99.1222 166.798 100.268 167.909 101.086C168.628 101.609 169.543 102.035 170.393 101.74C171.537 101.315 171.929 99.8749 172.126 98.6313C172.485 96.3406 172.845 94.0499 173.204 91.7592C173.4 90.5157 173.596 89.2721 174.152 88.1595C174.708 87.0469 175.754 86.0979 176.963 85.967C178.173 85.8361 179.513 86.7523 179.578 87.9959C179.611 88.5195 179.415 89.0103 179.349 89.5339C179.317 90.0575 179.447 90.6466 179.905 90.8756C180.362 91.1047 180.918 90.8429 181.343 90.5157C182.814 89.4685 183.925 88.0286 185.004 86.556C186.05 85.0834 187.096 83.6108 188.469 82.4327C189.841 81.2546 191.607 80.4692 193.372 80.6329C195.137 80.8292 196.836 82.2036 197 84.0035C197.163 85.8033 195.856 87.4068 194.548 88.6176C192.587 90.4175 190.364 91.9555 187.978 93.1336C187.553 93.33 187.096 93.559 186.867 94.0172C186.475 94.8026 187.096 95.7189 187.88 96.1443C188.73 96.6024 189.743 96.6679 190.691 96.9297C191.639 97.1915 192.587 97.7805 192.816 98.7622C193.11 100.104 191.868 101.249 190.691 101.937C188.338 103.311 185.756 104.293 183.108 104.816C182.16 105.013 181.147 105.144 180.33 105.634C179.513 106.158 178.892 107.172 179.186 108.121C179.48 109.07 180.559 109.529 181.539 109.496C182.52 109.463 183.435 109.103 184.383 108.907C186.181 108.547 188.338 109.005 189.155 110.641C189.711 111.721 189.547 113.063 189.024 114.143C188.469 115.223 187.586 116.106 186.671 116.859C183.468 119.575 179.578 121.571 175.46 122.291C171.276 123.077 167.582 122.847 163.921 120.786Z" fill="#E8505B"/>
<path d="M162.941 126.25C163.693 123.371 164.902 120 166.602 116.466C168.301 112.899 170.491 109.168 172.878 105.339C173.499 104.39 174.087 103.441 174.675 102.492C175.264 101.576 175.852 100.627 176.473 99.7762C177.715 98.0418 179.055 96.4711 180.363 94.9984C181.67 93.5586 182.978 92.2169 184.22 90.9733C185.462 89.7298 186.606 88.6172 187.717 87.6354C189.94 85.672 191.901 84.2648 193.274 83.3812C193.96 82.9231 194.516 82.5959 194.908 82.3995C195.104 82.3013 195.235 82.2032 195.333 82.1377C195.431 82.0723 195.496 82.0723 195.496 82.0723C195.496 82.0723 195.464 82.105 195.366 82.1704C195.268 82.2359 195.137 82.3341 194.941 82.4322C194.581 82.6613 194.026 83.0213 193.339 83.4794C191.966 84.3957 190.038 85.8029 187.848 87.7663C186.737 88.7481 185.592 89.8934 184.383 91.137C183.174 92.3805 181.866 93.7222 180.559 95.1621C179.251 96.6019 177.911 98.1727 176.669 99.9071C176.048 100.758 175.46 101.674 174.871 102.623C174.283 103.54 173.695 104.489 173.074 105.47C170.655 109.299 168.498 113.03 166.765 116.564C165.066 120.098 163.856 123.436 163.072 126.316" fill="#4F4F4F"/>
<path d="M176.538 99.7765C176.538 99.7765 176.505 99.5802 176.505 99.2202C176.505 98.8602 176.505 98.3694 176.505 97.7476C176.538 96.5041 176.636 94.7697 176.734 92.8717C176.832 90.9736 176.93 89.2392 176.93 87.9957C176.93 87.3739 176.93 86.8831 176.93 86.5231C176.93 86.1631 176.93 85.9668 176.963 85.9668C176.963 85.9668 176.996 86.1631 177.028 86.4904C177.061 86.8503 177.094 87.3412 177.094 87.963C177.126 89.2065 177.094 90.9409 176.963 92.8389C176.865 94.7042 176.734 96.4059 176.669 97.7149C176.636 98.3039 176.603 98.7948 176.603 99.1875C176.571 99.5802 176.571 99.7765 176.538 99.7765Z" fill="#4F4F4F"/>
<path d="M192.783 99.4164C192.783 99.4164 192.554 99.4164 192.129 99.3837C191.704 99.351 191.116 99.3182 190.397 99.2855C188.926 99.2201 186.9 99.1546 184.644 99.2201C182.389 99.2855 180.362 99.4164 178.891 99.58C178.172 99.6455 177.551 99.7109 177.159 99.7764C176.734 99.8091 176.538 99.8418 176.505 99.8418C176.505 99.8418 176.734 99.7764 177.126 99.7109C177.519 99.6455 178.14 99.5473 178.859 99.4491C180.33 99.2528 182.356 99.0892 184.612 99.0237C186.867 98.9583 188.893 99.0237 190.364 99.1546C191.116 99.2201 191.704 99.2855 192.097 99.351C192.587 99.351 192.783 99.3837 192.783 99.4164Z" fill="#4F4F4F"/>
<path d="M166.83 116.204C166.83 116.204 166.798 116.139 166.765 116.008C166.732 115.844 166.667 115.648 166.602 115.386C166.438 114.862 166.242 114.077 166.013 113.095C165.556 111.165 165 108.481 164.412 105.503C163.823 102.525 163.3 99.8418 162.875 97.9111C162.679 96.9621 162.483 96.1767 162.352 95.6204C162.287 95.3586 162.254 95.1622 162.222 94.9986C162.189 94.8677 162.189 94.7695 162.189 94.7695C162.189 94.7695 162.222 94.835 162.254 94.9659C162.287 95.1295 162.352 95.3258 162.418 95.5876C162.581 96.1112 162.777 96.8966 163.006 97.8784C163.464 99.8091 164.019 102.493 164.608 105.47C165.196 108.448 165.719 111.132 166.144 113.063C166.34 114.012 166.536 114.797 166.667 115.353C166.732 115.615 166.765 115.811 166.798 115.975C166.83 116.106 166.83 116.204 166.83 116.204Z" fill="#4F4F4F"/>
<path d="M188.861 112.866C188.861 112.866 188.796 112.899 188.632 112.932C188.469 112.964 188.24 112.997 187.979 113.03C187.39 113.128 186.573 113.259 185.625 113.39C183.631 113.684 180.886 114.142 177.846 114.666C174.806 115.157 172.06 115.615 170.066 115.877C169.053 116.008 168.269 116.106 167.68 116.171C167.419 116.204 167.223 116.204 167.027 116.237C166.863 116.237 166.798 116.237 166.798 116.237C166.798 116.237 166.863 116.204 167.027 116.171C167.19 116.139 167.419 116.106 167.68 116.073C168.269 115.975 169.086 115.844 170.034 115.713C172.028 115.419 174.773 114.96 177.813 114.437C180.853 113.946 183.599 113.488 185.592 113.226C186.606 113.095 187.39 112.997 187.979 112.932C188.24 112.899 188.436 112.899 188.632 112.866C188.796 112.866 188.861 112.833 188.861 112.866Z" fill="#4F4F4F"/>
<path d="M13.107 94.9661C14.8721 94.4752 16.8006 94.9334 18.3695 95.9151C19.9385 96.8641 21.1479 98.304 22.0958 99.8748C23.9589 102.885 24.6126 106.911 24.678 110.445C20.7556 110.248 17.4216 107.14 15.82 105.471C13.3032 102.787 10.3614 96.4387 13.107 94.9661Z" fill="#E8505B"/>
<path d="M30.9866 112.867C29.3849 111.591 28.6658 109.365 29.0254 107.369C29.3849 105.34 30.6924 103.573 32.3921 102.428C33.1765 101.904 34.1571 101.479 35.0397 101.741C35.8895 102.002 36.4778 102.821 36.6413 103.704C36.8047 104.588 36.6086 105.471 36.3144 106.322C35.3011 109.136 33.8303 111.722 30.9866 112.867Z" fill="#E8505B"/>
<path d="M34.5818 124.058C34.5492 124.058 34.4184 123.829 34.1896 123.436C33.9608 123.011 33.6339 122.389 33.2744 121.636C32.5553 120.098 31.5747 117.906 31.0844 115.321C30.6268 112.703 30.9537 110.248 31.6074 108.645C31.9343 107.827 32.2938 107.238 32.5553 106.845C32.8495 106.452 33.0129 106.256 33.0456 106.289C33.111 106.321 32.4245 107.14 31.8689 108.743C31.3132 110.314 31.019 112.703 31.4766 115.222C31.9343 117.775 32.8495 119.935 33.5032 121.506C34.1896 123.076 34.6145 124.058 34.5818 124.058Z" fill="#4F4F4F"/>
<path d="M15.7874 99.6126C15.8201 99.5799 16.1143 99.9071 16.6372 100.496C17.1602 101.085 17.912 101.936 18.8272 103.016C20.6576 105.176 23.1418 108.154 25.8221 111.557C28.5024 114.96 30.8231 118.069 32.4901 120.36C33.3072 121.505 33.961 122.422 34.4186 123.076C34.8762 123.731 35.105 124.091 35.0723 124.123C35.0396 124.123 34.7781 123.796 34.2878 123.174C33.7648 122.487 33.0784 121.603 32.2613 120.524C30.5616 118.266 28.1755 115.189 25.5279 111.786C22.8803 108.415 20.4288 105.372 18.6311 103.18C17.7813 102.132 17.0622 101.249 16.5392 100.594C16.0162 99.9726 15.7547 99.6126 15.7874 99.6126Z" fill="#4F4F4F"/>
<path d="M28.3391 117.218C24.9724 114.535 20.2656 113.619 16.1471 114.862C15.1012 115.189 13.9245 115.811 13.8264 116.924C13.7284 118.004 14.7416 118.887 15.7222 119.378C19.808 121.407 25.1359 120.654 28.5025 117.513" fill="#E8505B"/>
<path d="M18.7617 116.859C18.7617 116.826 18.9905 116.761 19.4481 116.663C19.6769 116.597 19.9384 116.532 20.2653 116.499C20.5921 116.466 20.9517 116.401 21.3766 116.401C22.1938 116.335 23.1744 116.368 24.253 116.532C25.3317 116.695 26.5084 116.99 27.6851 117.448C28.8618 117.906 29.9077 118.495 30.7903 119.117C31.6728 119.739 32.4246 120.393 32.9802 121.015C33.2744 121.309 33.5032 121.604 33.6993 121.866C33.9281 122.128 34.0589 122.357 34.1896 122.553C34.4511 122.946 34.5819 123.142 34.5492 123.175C34.4838 123.207 33.9281 122.357 32.7841 121.244C32.1958 120.688 31.4767 120.066 30.5941 119.477C29.7116 118.888 28.6656 118.331 27.5216 117.873C26.3776 117.415 25.2336 117.121 24.1876 116.957C23.1417 116.793 22.1611 116.728 21.3766 116.761C19.7423 116.695 18.7617 116.924 18.7617 116.859Z" fill="#4F4F4F"/>
<path d="M72.5303 10.6022L69.7846 12.8929L68.4445 12.3038L68.183 11.1585C68.183 11.1585 71.1247 8.99866 71.0267 8.86776C70.7652 8.57324 70.373 8.44235 70.0134 8.40962C69.2943 8.31145 68.6079 8.50779 68.0196 8.93321L67.4966 9.32591C66.5487 10.0458 66.0257 11.2239 66.2545 12.402C66.2545 12.4675 66.2872 12.5002 66.2872 12.5002L58.1483 19.2742C56.8735 18.8487 55.5007 19.4378 54.9451 20.6813C54.3567 21.9903 54.945 23.5611 56.2852 24.1501C57.5926 24.7392 59.1616 24.1501 59.7499 22.8084C59.9787 22.2848 60.0441 21.6958 59.9134 21.1722L67.9542 14.4309C68.2484 14.7254 68.6733 14.8236 69.0982 14.8563C69.9154 14.8891 70.6998 14.5291 71.2882 13.9728L71.9746 13.3183C73.0859 12.1075 72.5303 10.6022 72.5303 10.6022ZM56.8082 22.8739C56.1871 22.6121 55.9256 21.8921 56.1871 21.3031C56.4486 20.6813 57.1677 20.4195 57.7561 20.6813C58.3771 20.9431 58.6386 21.663 58.3771 22.2521C58.1156 22.8411 57.4292 23.1356 56.8082 22.8739Z" fill="#E8505B"/>
<path d="M84.8205 26.2122C84.4936 26.2449 81.5846 26.474 76.0606 26.9321H76.0933C74.5243 28.7974 72.2036 30.7281 69.0657 31.8408C67.4968 32.3971 65.7644 32.7571 63.934 32.7898C62.1036 32.7898 60.1424 32.5607 58.2466 31.9062C56.3508 31.2517 54.4877 30.2046 52.886 28.7974C51.2517 27.3902 49.8789 25.5904 48.8656 23.5615C47.885 21.4998 47.2967 19.1764 47.2313 16.7875C47.1986 16.493 47.2313 16.1985 47.2313 15.9039C47.2313 15.6094 47.264 15.3149 47.264 14.9877C47.264 14.6931 47.3294 14.3986 47.3621 14.1041C47.3948 13.8096 47.4601 13.5151 47.4928 13.2205C47.5582 12.926 47.6562 12.6315 47.7216 12.337C47.8197 12.0425 47.8524 11.7479 47.9504 11.4534C48.0485 11.1589 48.1465 10.8644 48.2773 10.6026L48.4407 10.1772C48.5061 10.0463 48.5715 9.88264 48.6368 9.75174C49.6174 7.59192 51.0556 5.66117 52.788 4.12312C54.5204 2.58507 56.5469 1.47244 58.6388 0.817949C60.7634 0.163459 62.9534 -0.0328885 65.0126 0.163458C67.1046 0.359806 69.0657 0.948846 70.8308 1.83241C74.3282 3.59953 76.9104 6.44656 78.2833 9.42449C78.4467 9.78446 78.6428 10.1444 78.7736 10.5371C78.9043 10.8971 79.035 11.2898 79.1658 11.6498C79.3292 12.4024 79.5907 13.1224 79.6561 13.8423C79.7215 14.2023 79.7868 14.5622 79.8195 14.8895C79.8522 15.2495 79.8522 15.5767 79.8849 15.9367C79.8849 16.1003 79.8849 16.2639 79.9176 16.4275C79.9176 16.5912 79.9176 16.7548 79.8849 16.9184C79.8849 17.2456 79.8522 17.5729 79.8522 17.8674V17.8347C82.9901 23.0706 84.6571 25.8849 84.8205 26.2122C84.6244 25.9176 82.9247 23.0706 79.7868 17.8347V17.802C79.7868 17.5074 79.8195 17.1802 79.8195 16.853C79.8195 16.6893 79.8522 16.5257 79.8522 16.3621C79.8522 16.1985 79.8195 16.0348 79.8195 15.8712C79.7868 15.544 79.7868 15.184 79.7541 14.8568C79.7215 14.4968 79.6561 14.1695 79.5907 13.8096C79.5253 13.0896 79.2638 12.3697 79.1004 11.617C78.9697 11.2571 78.8389 10.8971 78.7082 10.5044C78.5774 10.1117 78.414 9.75174 78.2179 9.39177C76.8451 6.44656 74.2955 3.63226 70.8308 1.86513C69.0984 0.981571 67.1373 0.425255 65.078 0.228907C63.0188 0.0325605 60.8615 0.228908 58.7696 0.883398C56.6777 1.53789 54.6838 2.65052 52.9841 4.15585C51.2844 5.66117 49.8462 7.5592 48.8656 9.71901C48.8003 9.84991 48.7349 9.98081 48.6695 10.1444L48.5061 10.5698C48.408 10.8644 48.31 11.1262 48.1792 11.4207C48.0812 11.7152 48.0158 12.0097 47.9504 12.3042C47.885 12.5988 47.787 12.8933 47.7216 13.1878C47.6889 13.4823 47.6236 13.7769 47.5909 14.0714C47.5582 14.3659 47.4928 14.6604 47.4928 14.9549C47.4928 15.2495 47.4601 15.544 47.4601 15.8385C47.4274 16.133 47.4274 16.4275 47.4601 16.7221C47.5255 19.0782 48.0812 21.3689 49.0618 23.3979C50.0423 25.4268 51.4152 27.1939 53.0168 28.6011C54.6184 30.0082 56.4488 31.0227 58.3446 31.6772C60.2405 32.3316 62.1363 32.5934 63.9667 32.5934C65.7971 32.5607 67.5295 32.2335 69.0657 31.6772C72.1709 30.5645 74.4917 28.6665 76.0606 26.8339H76.0933C81.5846 26.4412 84.4936 26.2449 84.8205 26.2122Z" fill="white"/>
<path d="M161.045 127.789H37.1965C34.5816 127.789 32.4243 125.662 32.4243 123.011V44.2758C32.4243 41.6579 34.5489 39.498 37.1965 39.498H161.045C163.66 39.498 165.817 41.6251 165.817 44.2758V123.044C165.817 125.662 163.66 127.789 161.045 127.789Z" fill="#4F4F4F"/>
<path d="M165.719 128.999H32.8494C29.6462 128.999 27.0312 126.381 27.0312 123.174V121.276H171.537V123.174C171.537 126.381 168.922 128.999 165.719 128.999Z" fill="#4F4F4F"/>
<path d="M162.058 43H36.2158V117.579H162.058V43Z" fill="#F5F5F5"/>
<path d="M86.1606 121.276C86.1606 121.276 86.1933 121.276 86.2914 121.276C86.3894 121.276 86.5202 121.276 86.7163 121.276C87.1085 121.276 87.6642 121.276 88.3506 121.276C89.7888 121.276 91.8807 121.276 94.4629 121.244C99.6601 121.244 106.851 121.211 114.859 121.211H115.023L114.957 121.342C114.696 121.767 114.434 122.258 114.14 122.716C113.846 123.207 113.552 123.698 113.29 124.189L113.258 124.222H113.192C102.112 124.189 92.6325 124.189 87.9584 124.189H87.9257V124.156C87.3373 123.207 86.9124 122.487 86.6183 121.996C86.4875 121.767 86.3568 121.571 86.2914 121.44C86.1933 121.342 86.1606 121.276 86.1606 121.276C86.1606 121.276 86.1933 121.342 86.2914 121.473C86.3894 121.604 86.4875 121.767 86.6509 122.029C86.9451 122.52 87.4027 123.207 87.9911 124.123L87.9584 124.091C92.6325 124.091 102.112 124.058 113.192 124.058L113.127 124.091C113.388 123.633 113.682 123.109 113.977 122.618C114.238 122.127 114.532 121.669 114.794 121.244L114.859 121.375C106.884 121.342 99.7254 121.342 94.561 121.342C91.9788 121.342 89.8869 121.309 88.4487 121.309C87.7296 121.309 87.1739 121.309 86.7817 121.309C86.5856 121.309 86.4548 121.309 86.3568 121.309C86.226 121.276 86.1606 121.276 86.1606 121.276Z" fill="#4F4F4F"/>
<path fill-rule="evenodd" clip-rule="evenodd" d="M82.2383 56.8743C82.4671 56.5798 82.7286 56.2853 83.0227 56.0562L82.8266 55.009L84.4282 54.3218L85.0493 55.1726C85.4088 55.1072 85.8011 55.1072 86.1933 55.1726L86.7816 54.2891L88.416 54.9436L88.2525 55.9907C88.5467 56.2198 88.8409 56.4816 89.0697 56.7761L90.1156 56.5798L90.8021 58.1833L89.9522 58.805C90.0176 59.165 90.0176 59.5577 89.9522 59.9504L90.8347 60.5394L90.181 62.1757L89.1351 62.012C88.9063 62.3066 88.6448 62.6011 88.3506 62.8302L88.5467 63.8773L86.9451 64.5646L86.324 63.7137C85.9645 63.7792 85.5723 63.7792 85.18 63.7137L84.5917 64.5973L82.9574 63.9428L83.1208 62.8956C82.8266 62.6665 82.5324 62.4047 82.3036 62.1102L81.2577 62.3066L80.5713 60.7031L81.4211 60.0813C81.3557 59.7213 81.3557 59.3286 81.4211 58.9359L80.5386 58.3469L81.1923 56.7107L82.2383 56.8743ZM84.0033 58.7069C83.6111 59.6559 84.0687 60.7685 85.0493 61.1612C85.9972 61.5539 87.1085 61.0958 87.5007 60.114C87.893 59.165 87.4354 58.0524 86.4548 57.6597C85.4742 57.267 84.3629 57.7251 84.0033 58.7069Z" fill="#CBF7E3"/>
<path fill-rule="evenodd" clip-rule="evenodd" d="M75.7012 90.7117C76.3877 89.8281 77.1394 89.01 78.022 88.3555L77.4663 85.3448L82.1404 83.3487L83.9382 85.8357C85.0168 85.6721 86.1282 85.6721 87.2395 85.803L88.9719 83.2832L93.6787 85.1812L93.1884 88.2246C94.1036 88.9118 94.8881 89.6645 95.5418 90.548L98.5489 89.9917L100.543 94.6713L98.0586 96.4712C98.2221 97.5511 98.2221 98.6637 98.0913 99.7763L100.608 101.511L98.7124 106.223L95.6725 105.732C94.9861 106.616 94.2343 107.434 93.3518 108.088L93.9075 111.099L89.2333 113.095L87.4356 110.608C86.357 110.772 85.2456 110.772 84.1343 110.641L82.4019 113.161L77.6951 111.263L78.1854 108.219C77.2702 107.532 76.4857 106.779 75.832 105.896L72.8249 106.452L70.831 101.773L73.3152 99.9727C73.1517 98.8928 73.1517 97.7802 73.2825 96.6675L70.7656 94.9331L72.6614 90.2208L75.7012 90.7117ZM80.7676 95.9803C79.6563 98.7619 80.9964 101.936 83.8074 103.082C86.5858 104.194 89.7563 102.852 90.9003 100.038C92.0117 97.2566 90.6715 94.0823 87.8605 92.9369C85.0495 91.8243 81.8789 93.166 80.7676 95.9803Z" fill="#F5F5F5"/>
<path d="M54.9126 99.9405C54.9126 99.9405 54.9779 99.6787 55.2394 99.286C55.5009 98.8933 56.0239 98.3697 56.8737 98.1079C57.2987 97.977 57.7889 97.9443 58.2792 98.0424C58.7695 98.1406 59.2925 98.3697 59.7501 98.7624C59.9789 98.9587 60.175 99.1878 60.3385 99.4496C60.5019 99.7114 60.6327 100.006 60.698 100.3C60.8615 100.922 60.8288 101.609 60.5673 102.231C60.3058 102.853 59.8809 103.377 59.3252 103.704C59.0637 103.867 58.7695 103.998 58.4754 104.064C58.1812 104.129 57.887 104.162 57.5928 104.162C57.0045 104.162 56.4815 103.933 56.0239 103.671C55.599 103.409 55.2721 103.017 55.0433 102.657C54.5857 101.904 54.5857 101.151 54.6511 100.66C54.7818 100.17 54.9126 99.9405 54.9126 99.9405C54.9452 99.9405 54.8145 100.202 54.7491 100.66C54.6837 101.119 54.7164 101.838 55.174 102.591C55.4028 102.951 55.697 103.311 56.1219 103.573C56.5469 103.835 57.0372 104.031 57.5928 104.031C57.8543 104.031 58.1485 103.998 58.4427 103.933C58.7368 103.867 58.9983 103.736 59.2598 103.573C59.7828 103.246 60.175 102.755 60.4365 102.166C60.6653 101.577 60.698 100.922 60.5673 100.333C60.5019 100.039 60.3712 99.7768 60.2404 99.515C60.077 99.2532 59.9136 99.0569 59.7174 98.8605C59.3252 98.4679 58.8022 98.2715 58.3446 98.1733C57.8543 98.0752 57.3967 98.1079 57.0045 98.2061C56.1873 98.4351 55.6643 98.926 55.3702 99.286C55.0106 99.6787 54.9126 99.9405 54.9126 99.9405Z" fill="#4F4F4F"/>
<path d="M52.1015 97.0276C52.1015 97.0276 52.0689 97.0276 52.0035 97.0276C51.9381 97.0276 51.8074 96.9949 51.6766 96.9949C51.3824 96.9621 50.9575 96.8967 50.4345 96.7985L50.4672 96.7658C50.2057 97.4203 49.8462 98.3039 49.4213 99.3838V99.3183C49.8462 99.6128 50.3038 99.9401 50.8268 100.267L50.8595 100.3V100.333C50.7941 100.889 50.7941 101.511 50.8922 102.165V102.198L50.8595 102.231C50.4345 102.558 49.9769 102.885 49.4866 103.245L49.5193 103.18C49.8789 103.998 50.2384 104.849 50.6307 105.765L50.5653 105.732C51.0883 105.634 51.6439 105.536 52.2323 105.438H52.265L52.2977 105.471C52.6572 105.929 53.0821 106.354 53.6051 106.747L53.6378 106.779V106.812C53.5397 107.336 53.4744 107.892 53.3763 108.481L53.2783 108.318C54.0954 108.645 54.9779 109.005 55.8932 109.365L55.7951 109.397C56.0893 108.972 56.4161 108.481 56.743 107.99L56.7757 107.958H56.8411C57.3967 108.023 58.0178 108.023 58.6388 107.925H58.7042L58.7369 107.958C59.0637 108.383 59.3906 108.874 59.7174 109.332L59.6194 109.299C60.4365 108.939 61.3191 108.579 62.2016 108.187L62.1362 108.285C62.0382 107.761 61.9401 107.172 61.8421 106.616V106.55L61.8747 106.518C62.3323 106.158 62.7573 105.732 63.1495 105.241L63.1822 105.209H63.2476C63.8032 105.307 64.3589 105.405 64.9146 105.471L64.8165 105.536C65.1761 104.652 65.5356 103.769 65.8625 102.918L65.8952 103.016C65.4375 102.689 64.9472 102.362 64.4896 102.034L64.457 102.002V101.936C64.5223 101.315 64.5223 100.725 64.4243 100.136V100.071L64.457 100.038C64.9146 99.711 65.3722 99.3838 65.8298 99.0565L65.7971 99.1547C65.4375 98.2711 65.0453 97.4203 64.6858 96.5695L64.7838 96.6022C64.2281 96.7004 63.6725 96.7985 63.1168 96.8967H63.0841L63.0514 96.864C62.6592 96.3731 62.2343 95.9477 61.744 95.5877L61.7113 95.555V95.5223C61.8094 94.9332 61.9074 94.3769 61.9728 93.8533L62.0055 93.9188C61.0903 93.5588 60.2404 93.1988 59.3906 92.8716L59.456 92.8389C59.1291 93.3297 58.8022 93.7879 58.4754 94.246L58.4427 94.2787H58.41C57.7563 94.2133 57.1679 94.2133 56.5796 94.2787H56.5469L56.5142 94.246C56.1546 93.7551 55.8278 93.297 55.5336 92.8716L55.599 92.9043C54.5857 93.3297 53.7359 93.6897 53.0168 93.9842L53.0494 93.9515C53.1802 94.606 53.2782 95.1623 53.3436 95.6204V95.6532C52.8533 96.0459 52.5265 96.3731 52.3304 96.6022C52.2323 96.7004 52.1669 96.7985 52.1015 96.864C52.1342 96.9949 52.1015 97.0276 52.1015 97.0276C52.1015 97.0276 52.1342 96.9949 52.1669 96.9294C52.1996 96.864 52.265 96.7658 52.363 96.6676C52.5592 96.4386 52.8533 96.0786 53.3436 95.6859V95.7186C53.2456 95.2605 53.1475 94.7042 53.0168 94.0497V94.0169H53.0494C53.7685 93.6897 54.6184 93.3297 55.6317 92.9043H55.6643L55.697 92.937C55.9912 93.3625 56.3181 93.8206 56.7103 94.3115L56.6449 94.2787C57.2333 94.1806 57.8216 94.1806 58.5081 94.246L58.4427 94.2787C58.7369 93.8206 59.0637 93.3625 59.3906 92.8716L59.4233 92.8389L59.4886 92.8716C60.3058 93.1988 61.1883 93.5588 62.1035 93.9188L62.1689 93.9515V94.0169C62.0709 94.5733 62.0055 95.1296 61.9074 95.6859L61.8747 95.6204C62.365 95.9804 62.8226 96.4058 63.2149 96.9294L63.1495 96.8967C63.7052 96.7985 64.2608 96.7004 64.8165 96.6022H64.8819L64.9146 96.6676C65.2741 97.5185 65.6337 98.3693 66.0259 99.2529L66.0586 99.3183L65.9932 99.351C65.5356 99.6783 65.078 100.006 64.6204 100.333L64.6531 100.267C64.7511 100.889 64.7511 101.511 64.6858 102.133L64.6531 102.067C65.1107 102.394 65.5683 102.722 66.0586 103.049L66.124 103.082L66.0913 103.147C65.7317 103.998 65.4049 104.881 65.0453 105.765L65.0126 105.83H64.9472C64.3916 105.732 63.8359 105.667 63.2803 105.569L63.3783 105.536C62.9861 106.06 62.5611 106.485 62.0709 106.845L62.1035 106.747C62.2016 107.336 62.2997 107.892 62.3977 108.416V108.481L62.3323 108.514C61.4498 108.907 60.5673 109.267 59.7501 109.627L59.6848 109.659L59.6521 109.594C59.3252 109.103 58.9657 108.645 58.6715 108.219L58.7369 108.252C58.1158 108.35 57.4621 108.35 56.8737 108.285L56.9391 108.252C56.6122 108.743 56.2854 109.201 55.9585 109.659L55.9258 109.725L55.8605 109.692C54.9452 109.332 54.0627 108.972 53.2456 108.645L53.1802 108.612V108.547C53.2782 107.958 53.3763 107.401 53.4417 106.878L53.4744 106.943C52.9514 106.55 52.4938 106.092 52.1669 105.634L52.2323 105.667C51.6439 105.765 51.0883 105.863 50.5653 105.961H50.4999L50.4672 105.896C50.075 104.98 49.7154 104.129 49.3559 103.311L49.3232 103.278L49.3559 103.245C49.8462 102.885 50.3038 102.558 50.7287 102.264L50.696 102.329C50.598 101.674 50.598 101.053 50.696 100.496L50.7287 100.529C50.2384 100.169 49.7481 99.8419 49.3232 99.5474L49.2905 99.5147V99.4819C49.7154 98.4348 50.075 97.5512 50.3692 96.864V96.8313H50.4019C50.9248 96.9294 51.3498 96.9949 51.6439 97.0603C51.7747 97.0931 51.8727 97.093 51.9708 97.1258C52.0689 96.9949 52.1015 97.0276 52.1015 97.0276Z" fill="#4F4F4F"/>
<path fill-rule="evenodd" clip-rule="evenodd" d="M45.7277 62.4703C46.2507 61.0304 46.9698 59.656 47.8523 58.4452L45.9238 54.6818L51.317 50.1986L54.6837 52.7838C56.0565 52.162 57.5274 51.7039 59.031 51.4421L60.3384 47.417L67.3006 48.0715L67.8563 52.2602C69.2945 52.7838 70.6673 53.5038 71.9094 54.3873L75.6683 52.4566L80.1463 57.8561L77.5641 61.2267C78.1851 62.6012 78.6427 64.0738 78.9042 65.5791L82.9246 66.8881L82.2709 73.8584L78.0871 74.4147C77.5641 75.8546 76.845 77.229 75.9625 78.4726L77.891 82.2359L72.4977 86.7191L69.131 84.1339C67.7582 84.7557 66.2873 85.2138 64.7838 85.4756L63.4763 89.5007L56.5142 88.8462L55.9585 84.6575C54.5203 84.1339 53.1475 83.4139 51.9054 82.5304L48.1465 84.4611L43.6685 79.0616L46.2507 75.691C45.6296 74.3165 45.172 72.8439 44.9105 71.3386L40.8901 70.0296L41.5439 63.0593L45.7277 62.4703ZM54.4549 67.4444C54.0627 71.5677 57.1025 75.2328 61.2537 75.6255C65.3721 76.0182 69.033 72.9748 69.4252 68.8188C69.8174 64.6955 66.7776 61.0304 62.6265 60.6377C58.508 60.2777 54.8472 63.3211 54.4549 67.4444Z" fill="#CBF7E3"/>
<path d="M165.817 121.277C165.817 121.309 135.975 121.342 99.1375 121.342C62.3001 121.342 32.4575 121.309 32.4575 121.277C32.4575 121.244 62.3001 121.211 99.1375 121.211C135.942 121.178 165.817 121.211 165.817 121.277Z" fill="#4F4F4F"/>
<path d="M94.0705 20.9434C92.0113 21.8596 90.8019 24.0522 90.3769 26.2775C89.9193 28.47 90.0828 30.7607 89.8867 32.986C89.6905 35.2112 89.0695 37.5674 87.4352 39.1055C85.8989 40.5453 83.6763 41.1344 82.3688 42.7706C81.4209 43.9814 81.1267 45.7158 81.6497 47.1884C82.1727 48.661 83.4802 49.8064 85.0164 50.1336C84.0031 51.7698 84.4934 54.0278 85.8009 55.435C87.1083 56.8421 89.0368 57.4966 90.9326 57.7912C94.2666 58.3148 97.8294 57.7257 100.673 55.8604C103.484 53.9951 105.478 50.7554 105.478 47.3848" fill="#4F4F4F"/>
<path d="M85.1474 54.1912C85.1474 54.1912 84.9513 53.9621 84.7879 53.4712C84.6244 52.9803 84.4937 52.195 84.6571 51.2787C84.7552 50.8205 84.8859 50.3297 85.1147 49.8061C85.3435 49.3152 85.6704 48.7916 86.0626 48.3007C86.8144 47.319 87.8604 46.4027 88.9064 45.421C89.9523 44.4392 90.9002 43.4575 91.652 42.5085C92.4365 41.5595 93.0248 40.6105 93.4171 39.7596C93.8093 38.9088 94.0381 38.1889 94.1362 37.6653C94.2015 37.4035 94.2015 37.2071 94.2342 37.0762C94.2669 36.9453 94.2669 36.8799 94.2669 36.8799C94.2669 36.8799 94.2669 36.9453 94.2669 37.0762C94.2342 37.2071 94.2342 37.4035 94.2015 37.6653C94.1035 38.1889 93.9074 38.9088 93.5151 39.7924C93.1229 40.6432 92.5345 41.6249 91.7827 42.574C90.9983 43.5557 90.0504 44.5374 89.0371 45.5192C87.9911 46.5009 86.9779 47.3845 86.2261 48.3662C85.8338 48.8571 85.5397 49.3479 85.2782 49.8388C85.0494 50.3297 84.8859 50.8205 84.7879 51.2787C84.6244 52.195 84.7225 52.9476 84.8533 53.4385C85.0167 53.9294 85.1801 54.1912 85.1474 54.1912Z" fill="#4F4F4F"/>
<path d="M118.651 28.3398C118.651 31.3505 120.056 34.1321 121.298 35.1465C123.063 36.5864 125.678 37.2736 127.378 37.7645C129.862 38.4517 131.954 40.6443 132.281 43.2295C132.608 45.8147 130.908 48.5636 128.391 49.2181C129.96 50.8216 129.502 53.6032 128.195 55.4357C125.744 58.9373 120.808 60.279 116.755 58.97C112.669 57.661 109.564 54.0613 108.354 49.9707" fill="#4F4F4F"/>
<path d="M124.861 58.1191C124.861 58.0864 125.253 58.0863 125.809 57.6937C126.071 57.4973 126.365 57.2028 126.626 56.7774C126.855 56.352 127.051 55.8284 127.051 55.2066C127.051 54.6176 126.888 53.9303 126.561 53.3086C126.234 52.6868 125.711 52.0978 125.09 51.5742C123.848 50.527 122.181 49.8725 120.547 48.9562C119.729 48.4654 118.978 47.9418 118.389 47.2545C118.095 46.9273 117.834 46.5673 117.638 46.1746C117.441 45.7819 117.311 45.3892 117.213 44.9966C117.049 44.1784 117.049 43.3931 117.115 42.6731C117.18 41.9532 117.245 41.2987 117.311 40.6769C117.441 39.4661 117.441 38.4517 117.278 37.7972C117.245 37.6335 117.18 37.5026 117.147 37.3717C117.115 37.2408 117.049 37.1427 117.017 37.0772C116.951 36.9136 116.918 36.8154 116.918 36.8154C116.918 36.8154 116.951 36.9136 117.049 37.0772C117.082 37.1754 117.147 37.2736 117.18 37.3717C117.213 37.5026 117.278 37.6335 117.311 37.7972C117.507 38.4517 117.539 39.4661 117.409 40.7096C117.343 41.3314 117.278 41.9859 117.213 42.7058C117.18 43.4258 117.147 44.2112 117.343 44.9638C117.507 45.7492 117.899 46.5019 118.487 47.1564C119.076 47.8109 119.795 48.3344 120.612 48.8253C122.214 49.7416 123.913 50.4288 125.188 51.476C125.809 51.9996 126.332 52.5886 126.692 53.2431C127.051 53.8976 127.215 54.5848 127.182 55.2066C127.149 55.8284 126.953 56.3847 126.724 56.8101C126.463 57.2355 126.169 57.53 125.874 57.7264C125.58 57.9227 125.319 57.9882 125.155 58.0536C124.959 58.1191 124.861 58.1191 124.861 58.1191Z" fill="#4F4F4F"/>
<path d="M130.745 48.0402C130.712 48.0402 131.006 47.7785 131.039 47.1894C131.039 46.8949 131.006 46.5349 130.81 46.175C130.614 45.815 130.32 45.4223 129.895 45.1605C129.437 44.8987 128.881 44.7351 128.293 44.6042C127.672 44.506 127.018 44.4733 126.332 44.3424C124.926 44.1133 123.456 43.5897 122.115 42.6734C120.775 41.7571 119.697 40.5791 118.978 39.3683C118.258 38.1575 117.866 36.9139 117.703 35.8667C117.507 34.8196 117.539 33.936 117.572 33.347C117.605 33.0524 117.637 32.8234 117.637 32.6597C117.67 32.4961 117.67 32.4307 117.67 32.4307C117.703 32.4307 117.637 32.7579 117.605 33.347C117.572 33.936 117.605 34.7868 117.801 35.834C117.997 36.8812 118.389 38.092 119.108 39.2701C119.827 40.4809 120.873 41.6262 122.181 42.5098C123.521 43.3934 124.959 43.9497 126.332 44.1788C127.018 44.2769 127.672 44.3424 128.293 44.4406C128.914 44.5387 129.47 44.7351 129.927 45.0296C130.385 45.3241 130.679 45.7168 130.875 46.1095C131.071 46.5022 131.104 46.8622 131.104 47.1894C131.071 47.4839 130.973 47.713 130.875 47.8439C130.843 47.9093 130.777 47.9421 130.777 47.9748C130.777 48.0075 130.745 48.0402 130.745 48.0402Z" fill="#4F4F4F"/>
<path d="M95.5415 63.7806C95.9664 59.2647 96.3259 54.4869 96.3259 54.4869C96.3259 54.4869 90.6058 52.9488 90.1482 45.2258C89.7233 37.8628 92.5343 21.2715 92.5343 21.2715C101.229 18.6863 110.937 21.926 116.232 29.2236L112.146 65.875C111.656 70.1292 107.635 73.1071 103.092 72.5508C98.5159 72.0272 95.1165 68.1003 95.5415 63.7806Z" fill="#FFD1BA"/>
<path d="M93.4168 34.5577C93.3515 35.0813 93.711 35.5395 94.2667 35.6376C94.7897 35.7031 95.28 35.3758 95.3453 34.8523C95.4107 34.3287 95.0512 33.8705 94.4955 33.7723C93.9725 33.7069 93.4822 34.0669 93.4168 34.5577Z" fill="#4F4F4F"/>
<path d="M91.9458 33.3143C92.0438 33.4452 92.8283 32.9871 93.907 33.0853C94.9529 33.1834 95.672 33.8052 95.8028 33.6743C95.8681 33.6089 95.7701 33.3798 95.4432 33.118C95.149 32.8562 94.5934 32.5617 93.9397 32.4962C93.2859 32.4308 92.7303 32.6271 92.3707 32.8235C92.0439 33.0525 91.9131 33.2489 91.9458 33.3143Z" fill="#4F4F4F"/>
<path d="M104.138 35.8019C104.073 36.3255 104.432 36.7836 104.988 36.8818C105.511 36.9472 106.001 36.62 106.066 36.0964C106.132 35.5728 105.772 35.1147 105.217 35.0165C104.694 34.951 104.203 35.311 104.138 35.8019Z" fill="#4F4F4F"/>
<path d="M102.831 34.787C102.929 34.9179 103.746 34.4598 104.792 34.5579C105.838 34.6561 106.557 35.2779 106.688 35.147C106.753 35.0815 106.655 34.8524 106.328 34.5907C106.034 34.3289 105.478 34.0343 104.824 33.9689C104.171 33.9034 103.615 34.0998 103.255 34.2961C102.929 34.4925 102.798 34.7216 102.831 34.787Z" fill="#4F4F4F"/>
<path d="M98.287 42.1822C98.287 42.1168 97.6659 41.9531 96.62 41.6913C96.3585 41.6259 96.097 41.5604 96.097 41.3641C96.0643 41.1678 96.195 40.8732 96.3585 40.5787C96.6853 39.9569 97.0122 39.3025 97.3391 38.6152C98.7119 35.8337 99.7579 33.5102 99.6271 33.4448C99.529 33.3793 98.287 35.6046 96.9141 38.3862C96.5873 39.0734 96.2604 39.7279 95.9662 40.3496C95.8355 40.6442 95.6394 40.9714 95.7374 41.3968C95.8028 41.5932 95.9662 41.7568 96.1297 41.8222C96.2931 41.8877 96.4565 41.9204 96.5873 41.9204C97.6006 42.1495 98.2543 42.2477 98.287 42.1822Z" fill="#4F4F4F"/>
<path d="M96.3261 54.5191C96.3261 54.5191 101.392 55.3372 106.753 52.8174C106.753 52.8174 103.779 57.7915 96.2607 56.3189L96.3261 54.5191Z" fill="#EB996E"/>
<path d="M98.483 44.7353C98.9079 44.2771 99.5943 44.0808 100.248 44.2117C100.706 44.3099 101.131 44.5716 101.359 44.9643C101.588 45.357 101.621 45.8806 101.327 46.2079C101 46.5678 100.411 46.6006 99.9212 46.4042C99.4309 46.2079 99.0386 45.8479 98.6464 45.4879C98.5483 45.3898 98.4503 45.2916 98.3849 45.1607C98.3195 45.0298 98.3195 44.8662 98.4176 44.768" fill="#FE6083"/>
<path d="M101.294 43.197C101.131 43.1643 101 44.3096 99.9541 45.0296C98.9081 45.7495 97.6987 45.4877 97.666 45.6513C97.6334 45.7168 97.9275 45.9131 98.4178 45.9786C98.9081 46.044 99.6599 45.9458 100.314 45.5204C100.967 45.095 101.262 44.4405 101.36 43.9824C101.458 43.4915 101.36 43.197 101.294 43.197Z" fill="#4F4F4F"/>
<path d="M112.636 37.3392C113.454 37.2738 114.303 37.372 115.055 37.7319C115.807 38.0919 116.428 38.7464 116.689 39.5318C116.951 40.3172 116.82 41.2007 116.461 41.9534C116.101 42.706 115.513 43.3278 114.892 43.8514C114.434 44.2114 113.911 44.5713 113.323 44.6695C112.734 44.8004 112.081 44.6695 111.656 44.2441" fill="#FFD1BA"/>
<path d="M112.604 42.3132C112.506 42.3459 112.8 42.8695 113.584 42.7386C113.944 42.6732 114.336 42.4114 114.565 42.0187C114.826 41.626 114.99 41.2333 115.088 40.7097C115.186 40.2188 115.121 39.6625 114.892 39.2371C114.663 38.8117 114.238 38.5499 113.878 38.5171C113.127 38.419 112.832 38.9426 112.898 38.9426C112.963 39.008 113.29 38.7789 113.748 38.9426C114.205 39.0735 114.63 39.7934 114.434 40.5788C114.271 41.3969 113.878 42.1496 113.388 42.2805C112.996 42.5095 112.669 42.2477 112.604 42.3132Z" fill="#EB996E"/>
<path d="M96.2278 24.5439C95.1165 27.1291 92.7304 29.158 89.9847 29.8125C89.8213 27.9472 89.7232 26.0492 90.0174 24.1839C90.3116 22.3186 91.0634 20.486 92.4362 19.1771C93.7763 17.8681 95.8029 17.1809 97.6006 17.639" fill="#4F4F4F"/>
<path d="M96.7507 21.1073C95.8027 23.4961 96.195 26.3432 97.7312 28.3721C99.2675 30.401 101.915 31.5464 104.465 31.2846C104.955 31.2191 105.478 31.121 105.935 31.3173C106.426 31.5137 106.753 31.9718 107.047 32.4299C108.256 34.2298 109.531 36.1278 111.427 37.175C113.323 38.2222 116.068 38.124 117.343 36.3569C117.964 35.506 118.16 34.3934 118.291 33.3462C118.781 29.812 118.977 26.0487 117.31 22.9071C116.068 20.5837 113.878 18.8493 111.459 17.8021C109.041 16.7549 106.393 16.3295 103.746 16.1659C102.209 16.0677 100.64 16.0677 99.2021 16.6567C97.7966 17.2458 96.5545 18.522 96.4892 20.0601" fill="#4F4F4F"/>
<path d="M117.964 34.3277C117.964 34.3277 117.931 34.2295 117.866 34.0659C117.8 33.9023 117.735 33.6405 117.604 33.3132C117.376 32.6914 116.983 31.7752 116.33 30.728C115.676 29.7135 114.761 28.5682 113.486 27.5537C112.244 26.5392 110.642 25.7211 108.943 25.0012C107.243 24.2812 105.543 23.6922 104.072 23.005C102.601 22.3178 101.359 21.5651 100.411 20.7797C99.4635 19.9943 98.8425 19.209 98.4829 18.6199C98.2868 18.3254 98.1561 18.0963 98.0907 17.9327C98.0253 17.7691 97.96 17.6709 97.96 17.6709C97.96 17.6709 98.0253 17.7363 98.0907 17.9C98.1888 18.0636 98.3195 18.2927 98.5156 18.5545C98.9079 19.1108 99.5289 19.8634 100.477 20.6488C101.425 21.4015 102.667 22.1869 104.138 22.8414C105.609 23.5286 107.276 24.1176 109.008 24.8376C110.74 25.5575 112.309 26.3756 113.584 27.4228C114.859 28.4373 115.774 29.6153 116.428 30.6298C117.081 31.677 117.474 32.5933 117.67 33.2478C117.768 33.575 117.866 33.8368 117.899 34.0004C117.964 34.2295 117.997 34.3277 117.964 34.3277Z" fill="#4F4F4F"/>
<path d="M115.611 33.9022C115.611 33.9022 115.546 33.8367 115.48 33.6731C115.382 33.5422 115.284 33.3132 115.088 33.0841C114.728 32.5932 114.107 31.906 113.192 31.2515C112.277 30.597 111.1 30.008 109.727 29.4517C109.041 29.1571 108.322 28.8626 107.603 28.5027C106.884 28.1427 106.132 27.7827 105.413 27.3246C103.942 26.441 102.634 25.4265 101.621 24.3794C100.575 23.3322 99.7908 22.2195 99.2351 21.2378C98.6794 20.2561 98.3853 19.4052 98.1892 18.8162C98.0911 18.5217 98.0257 18.2926 98.0257 18.129C97.993 17.9654 97.9603 17.8672 97.993 17.8672C97.993 17.8672 98.0257 17.9326 98.0584 18.0963C98.0911 18.2599 98.1565 18.489 98.2545 18.7835C98.4506 19.3725 98.7775 20.2234 99.3332 21.1724C99.8888 22.1214 100.673 23.2013 101.719 24.2485C102.765 25.2957 104.04 26.2774 105.511 27.1609C106.23 27.5864 106.982 27.9791 107.701 28.339C108.42 28.699 109.139 28.9935 109.825 29.288C111.166 29.8771 112.375 30.4661 113.29 31.1533C114.205 31.8078 114.794 32.495 115.153 33.0186C115.317 33.2804 115.447 33.4768 115.513 33.6404C115.578 33.8367 115.611 33.9022 115.611 33.9022Z" fill="#4F4F4F"/>
<path d="M89.9847 32.8224C89.9847 32.8224 89.952 32.7569 89.9193 32.6588C89.8866 32.5279 89.8213 32.3642 89.7559 32.1352C89.6252 31.677 89.4617 31.0225 89.429 30.1717C89.3963 29.3209 89.4617 28.3064 89.7559 27.2265C90.0501 26.1466 90.5731 25.0012 91.3902 23.9868C91.7824 23.4632 92.2401 23.0378 92.6977 22.6123C93.1553 22.2196 93.6456 21.8924 94.1359 21.5979C95.0838 20.9761 95.9009 20.4198 96.4893 19.8308C97.0776 19.2417 97.4699 18.6527 97.6333 18.2273C97.8294 17.8018 97.8621 17.54 97.8948 17.54C97.8948 17.54 97.8948 17.6055 97.8621 17.7364C97.8294 17.8673 97.7967 18.0309 97.6987 18.26C97.5352 18.6854 97.1757 19.3072 96.5546 19.8962C95.9663 20.518 95.1164 21.0743 94.2012 21.6961C93.7436 21.9906 93.2533 22.3178 92.7957 22.7105C92.3381 23.1032 91.8805 23.5286 91.521 24.0522C90.7365 25.0667 90.2135 26.1793 89.9193 27.2265C89.6252 28.2737 89.5271 29.2881 89.5598 30.139C89.5925 30.9898 89.7232 31.6443 89.8213 32.1024C89.8866 32.2988 89.9193 32.4951 89.9847 32.626C89.9847 32.7569 89.9847 32.8224 89.9847 32.8224Z" fill="#4F4F4F"/>
<path d="M108.714 47.9736C106.949 47.9736 105.151 47.3845 103.844 46.2065L104.04 45.9774C106.328 48.039 110.054 48.2681 112.571 46.501C115.088 44.7666 116.166 41.1669 115.055 38.3199L115.349 38.2217C116.526 41.1996 115.382 44.9629 112.767 46.7955C111.623 47.5809 110.152 47.9736 108.714 47.9736Z" fill="#E8505B"/>
<path d="M106.197 46.6323C106.197 47.4504 105.511 48.1376 104.694 48.1376C103.876 48.1376 103.19 47.4504 103.19 46.6323C103.19 45.8142 103.876 45.127 104.694 45.127C105.511 45.127 106.197 45.8142 106.197 46.6323Z" fill="#E8505B"/>
<path d="M121.25 39.5788C121.588 36.8161 119.626 34.302 116.866 33.9632C114.107 33.6245 111.595 35.5895 111.257 38.3522C110.919 41.1149 112.882 43.6291 115.641 43.9678C118.4 44.3065 120.912 42.3415 121.25 39.5788Z" fill="#E8505B"/>
<path d="M115.447 38.2874C115.415 38.2874 115.415 37.8292 115.48 37.0111C115.48 36.5857 115.513 36.0948 115.545 35.5058C115.545 34.9167 115.578 34.2622 115.545 33.5423C115.545 33.1823 115.513 32.7896 115.513 32.3969C115.513 32.0043 115.447 31.5788 115.415 31.1534C115.382 30.728 115.317 30.3026 115.251 29.8444C115.218 29.6154 115.153 29.3863 115.12 29.1572C115.088 28.9282 115.022 28.6991 114.957 28.47C114.532 26.6047 113.715 24.6085 112.309 22.9068C110.904 21.2052 109.073 20.0598 107.276 19.3726C105.478 18.6854 103.778 18.3254 102.34 18.1291C100.902 17.9327 99.6925 17.8673 98.8753 17.8018C98.0582 17.7691 97.6006 17.7364 97.6006 17.7036C97.6006 17.6709 98.0582 17.6382 98.8753 17.6055C99.6925 17.6055 100.902 17.6055 102.373 17.7691C103.844 17.9327 105.609 18.2272 107.439 18.9472C109.27 19.6344 111.198 20.8125 112.669 22.5796C114.14 24.3467 114.957 26.4411 115.382 28.3718C115.447 28.6009 115.48 28.8627 115.513 29.0918C115.545 29.3208 115.578 29.5499 115.643 29.779C115.709 30.2371 115.774 30.6953 115.807 31.1207C115.839 31.5461 115.872 31.9715 115.872 32.3642C115.872 32.7569 115.905 33.1496 115.872 33.5423C115.872 34.295 115.839 34.9495 115.807 35.5385C115.774 36.1275 115.709 36.6184 115.676 37.0438C115.545 37.8292 115.48 38.2874 115.447 38.2874Z" fill="#E8505B"/>
<g opacity="0.4">
<path opacity="0.4" d="M119.86 38.9747C119.86 40.9054 118.291 42.4435 116.395 42.4435C114.467 42.4435 112.931 40.8727 112.931 38.9747C112.931 37.0439 114.5 35.5059 116.395 35.5059C118.324 35.5059 119.86 37.0439 119.86 38.9747Z" fill="black"/>
</g>
<path d="M115.251 35.7345C115.251 35.7345 115.316 35.7018 115.414 35.6691C115.512 35.6363 115.676 35.5709 115.905 35.5382C116.33 35.4727 117.016 35.4727 117.702 35.8327C118.062 36.029 118.389 36.3236 118.618 36.7162C118.846 37.1089 119.01 37.6325 118.977 38.1561C118.977 38.6797 118.814 39.236 118.454 39.6942C118.095 40.1523 117.572 40.4796 116.983 40.6432C116.395 40.7741 115.774 40.7414 115.251 40.4796C114.728 40.2178 114.336 39.7923 114.107 39.3342C113.878 38.8761 113.78 38.3525 113.813 37.8943C113.845 37.4362 114.042 37.0108 114.238 36.6835C114.663 36.029 115.251 35.6691 115.676 35.5709C115.905 35.5054 116.068 35.5054 116.166 35.5054C116.297 35.5054 116.33 35.5382 116.33 35.5382C116.33 35.5709 116.068 35.5054 115.676 35.6363C115.284 35.7672 114.728 36.0945 114.303 36.749C114.107 37.0762 113.944 37.4689 113.911 37.8943C113.878 38.3197 113.976 38.8106 114.205 39.2688C114.434 39.6942 114.793 40.1196 115.284 40.3487C115.774 40.5777 116.362 40.6432 116.918 40.4796C117.474 40.3487 117.964 40.0214 118.291 39.596C118.618 39.1706 118.781 38.647 118.781 38.1561C118.781 37.6653 118.683 37.1744 118.454 36.8144C118.225 36.4217 117.931 36.1599 117.604 35.9636C116.951 35.5709 116.297 35.5709 115.872 35.6036C115.48 35.6363 115.251 35.7672 115.251 35.7345Z" fill="#4F4F4F"/>
<path d="M116.363 42.4106C116.33 42.4106 116.232 42.0507 116.199 41.5925C116.166 41.1344 116.232 40.7744 116.297 40.7744C116.33 40.7744 116.363 41.1344 116.363 41.5925C116.395 42.0179 116.395 42.3779 116.363 42.4106Z" fill="#4F4F4F"/>
<path d="M118.291 41.7241C118.258 41.7241 118.095 41.4295 117.931 41.0368C117.768 40.6442 117.67 40.2842 117.735 40.2842C117.768 40.2842 117.931 40.5787 118.095 40.9714C118.226 41.3641 118.324 41.7241 118.291 41.7241Z" fill="#4F4F4F"/>
<path d="M119.566 40.2183C119.533 40.251 119.304 40.0874 119.043 39.8583C118.781 39.6292 118.585 39.4002 118.618 39.3675C118.651 39.3347 118.879 39.4983 119.141 39.7274C119.402 39.9565 119.598 40.1856 119.566 40.2183Z" fill="#4F4F4F"/>
<path d="M119.664 38.0909C119.664 38.1237 119.468 38.1237 119.271 38.0255C119.075 37.96 118.912 37.8619 118.945 37.8291C118.945 37.7964 119.141 37.7964 119.337 37.8946C119.533 37.96 119.664 38.0582 119.664 38.0909Z" fill="#4F4F4F"/>
<path d="M114.107 41.6255C114.074 41.6255 114.14 41.2328 114.368 40.8401C114.565 40.4147 114.826 40.1201 114.859 40.1529C114.891 40.1856 114.728 40.5128 114.499 40.9055C114.303 41.2982 114.14 41.6255 114.107 41.6255Z" fill="#4F4F4F"/>
<path d="M113.061 39.8583C113.028 39.8256 113.225 39.5965 113.486 39.302C113.748 39.0402 114.009 38.8439 114.042 38.8766C114.074 38.9093 113.878 39.1384 113.617 39.4329C113.355 39.6947 113.094 39.8911 113.061 39.8583Z" fill="#4F4F4F"/>
<path d="M113.878 37.4367C113.878 37.4694 113.748 37.5675 113.551 37.6003C113.355 37.6657 113.192 37.6657 113.192 37.6003C113.192 37.5675 113.323 37.4694 113.519 37.4367C113.715 37.4039 113.846 37.4039 113.878 37.4367Z" fill="#4F4F4F"/>
<path d="M140.256 65.0562C139.929 63.1909 139.21 62.2092 138.654 61.6856C138.164 61.1947 137.674 60.6712 137.053 60.3112C136.334 59.853 135.32 59.2967 134.699 59.1658C133.915 59.0022 133.719 57.955 134.373 57.6605C135.026 57.366 137.216 57.7914 139.308 59.3294C141.4 60.8675 140.354 56.9733 139.995 55.5334C139.635 54.0935 138.72 49.6103 139.079 49.1521C139.602 48.4976 140.419 48.9558 140.746 50.3956C141.073 51.8683 142.348 56.0897 143.1 55.8934C143.852 55.697 141.89 48.3995 141.89 48.3995C141.89 48.3995 141.237 46.8941 142.086 46.6323C143.623 46.1415 145.126 54.0281 145.257 54.7807C145.355 55.3043 146.172 55.108 146.042 54.5517C145.911 53.9626 143.95 47.3195 145.519 46.8287C146.728 46.436 146.793 53.3081 147.97 54.4535C149.147 55.6316 147.382 49.2503 148.558 48.923C148.983 48.7921 149.343 48.7594 149.833 52.5555C150.095 54.5844 149.931 57.3987 150.716 61.2929" fill="#FFD1BA"/>
<path d="M136.334 79.7164L143.492 89.9919L140.06 63.4851L150.291 59.46C150.291 59.46 163.169 108.939 145.878 109.627C145.878 109.627 133.915 109.299 124.992 88.5521L136.334 79.7164Z" fill="#FFD1BA"/>
<path d="M147.806 59.2637C147.839 59.2964 147.578 59.46 147.284 59.7873C146.957 60.1472 146.597 60.7035 146.434 61.4235L146.401 61.6198L146.27 61.4889C146.107 61.3253 145.943 61.1617 145.747 61.0308C144.995 60.4745 144.178 60.2454 143.59 60.18C143.002 60.1145 142.609 60.18 142.609 60.1472C142.609 60.1145 142.969 60.0163 143.623 60.0163C144.244 60.0491 145.126 60.2454 145.911 60.8344C146.107 60.9981 146.303 61.1617 146.466 61.3253L146.27 61.3908C146.434 60.6054 146.859 60.0163 147.218 59.6891C147.512 59.3618 147.774 59.2637 147.806 59.2637Z" fill="#EB996E"/>
<path d="M131.202 101.119L122.573 90.1237L120.318 101.348C119.402 105.897 119.893 110.609 121.658 114.896L122.769 117.58H82.7285L83.7418 114.013C84.2974 109.628 83.5456 105.079 83.6764 98.8284L82.5651 91.76L76.5181 117.58H58.7041C58.7041 117.58 68.4773 77.4921 74.5896 69.5727C82.3036 59.559 95.803 60.9007 95.803 60.9007L104.073 73.8596L112.146 62.177C112.146 62.177 126.005 59.2318 136.824 77.8848L142.61 87.833L139.929 67.3802L152.481 64.4677C152.481 64.4677 157.024 84.5606 156.697 95.3269C156.436 104.948 152.35 109.988 146.695 110.478C137.772 111.264 131.202 101.119 131.202 101.119Z" fill="#E8505B"/>
<path d="M95.8029 60.8681L95.9337 59.2646C95.9337 59.2646 102.046 60.6391 104.105 71.34C104.105 71.34 106.164 61.4572 112.767 60.4755L113.878 63.3225L109.825 73.8598L102.732 75.9541L95.8029 73.8598L92.665 67.6094L95.8029 60.8681Z" fill="#E8505B"/>
<path d="M78.7407 65.1221C78.7407 65.1221 78.7407 65.2202 78.7734 65.3839C78.7734 65.5802 78.8061 65.842 78.8388 66.1693C78.8715 66.8565 78.9695 67.8709 79.0676 69.0817C79.2637 71.5361 79.5906 74.9722 80.1462 78.7027C80.6692 82.4333 81.3229 85.804 81.8132 88.2256C82.0747 89.4364 82.2708 90.4181 82.4343 91.1053C82.4996 91.4326 82.565 91.6944 82.5977 91.8907C82.6304 92.0543 82.6631 92.1525 82.6304 92.1525C82.6304 92.1525 82.5977 92.0543 82.565 91.8907C82.5323 91.6944 82.4669 91.4326 82.3689 91.1053C82.2055 90.4181 81.9767 89.4691 81.7152 88.2583C81.1922 85.8367 80.5385 82.4661 80.0155 78.7355C79.4925 75.0049 79.1656 71.5688 79.0022 69.1145C78.9042 67.8709 78.8715 66.8892 78.8388 66.1693C78.8388 65.842 78.8061 65.5802 78.8061 65.3839C78.7407 65.2202 78.7407 65.1221 78.7407 65.1221Z" fill="#4F4F4F"/>
<path d="M113.715 61.7842C113.715 61.7842 113.683 61.8496 113.617 61.9478C113.552 62.046 113.454 62.2096 113.356 62.3732C113.094 62.7659 112.767 63.2895 112.342 63.944C111.493 65.253 110.316 67.0855 109.139 69.1799C109.106 69.2781 109.041 69.3435 109.008 69.409L108.943 69.5399L108.845 69.3763C108.583 68.8527 108.355 68.3291 107.962 67.9691C107.603 67.6091 107.08 67.3801 106.59 67.4455C106.099 67.511 105.74 67.8382 105.478 68.1982C105.217 68.5581 105.021 68.9181 104.923 69.2781C104.694 69.998 104.563 70.5871 104.4 70.9798C104.334 71.1761 104.236 71.3397 104.171 71.4052C104.105 71.5033 104.073 71.5361 104.073 71.5361C104.073 71.5361 104.171 71.3397 104.334 70.947C104.498 70.5543 104.596 69.9653 104.825 69.2126C104.923 68.8527 105.119 68.46 105.38 68.1C105.642 67.74 106.067 67.3801 106.59 67.2819C107.113 67.1837 107.701 67.4455 108.093 67.8382C108.518 68.2309 108.747 68.7872 109.008 69.3108H108.878C108.91 69.2454 108.976 69.1472 109.008 69.0817C110.218 66.9874 111.394 65.1548 112.277 63.8785C112.702 63.2241 113.094 62.7005 113.356 62.3405C113.486 62.1769 113.584 62.046 113.65 61.9478C113.683 61.8169 113.715 61.7842 113.715 61.7842Z" fill="#4F4F4F"/>
<path d="M107.897 67.8381C107.897 67.8381 107.864 67.9036 107.831 67.969C107.766 68.0672 107.701 68.1981 107.603 68.3617C107.407 68.7217 107.112 69.1798 106.786 69.7362C106.426 70.3252 106.001 71.0124 105.543 71.7651C105.315 72.1578 105.053 72.5505 104.824 72.9759C104.694 73.1722 104.563 73.4013 104.432 73.5977C104.399 73.6631 104.334 73.6958 104.269 73.7613C104.203 73.794 104.105 73.8267 104.007 73.794C103.844 73.7286 103.778 73.5977 103.68 73.4995C102.536 71.7651 101.686 70.0961 101 68.9181C100.673 68.329 100.412 67.8381 100.216 67.5109C100.019 67.1837 99.9214 66.9873 99.9214 66.9873C99.9214 66.9873 99.9541 67.02 100.019 67.1182C100.085 67.2164 100.15 67.3145 100.248 67.4782C100.444 67.8054 100.739 68.2636 101.098 68.8526C101.784 70.0307 102.667 71.6669 103.811 73.4013C103.876 73.4995 103.942 73.5977 104.04 73.6304C104.105 73.6631 104.203 73.5977 104.269 73.4995C104.399 73.3031 104.53 73.0741 104.661 72.8777C104.922 72.4523 105.151 72.0596 105.413 71.6996C105.87 70.947 106.328 70.2598 106.687 69.6707C107.047 69.1144 107.341 68.6563 107.537 68.329C107.635 68.1981 107.701 68.0672 107.766 67.969C107.864 67.8709 107.897 67.8381 107.897 67.8381Z" fill="#4F4F4F"/>
<path d="M130.058 68.7871C130.058 68.7871 130.025 68.8526 129.96 69.0162C129.895 69.1798 129.796 69.3762 129.666 69.6052C129.404 70.1288 129.045 70.8815 128.587 71.7978C128.162 72.7468 127.639 73.8594 127.116 75.1357C126.593 76.4119 126.07 77.8191 125.547 79.2917C125.024 80.797 124.599 82.2369 124.24 83.5459C123.88 84.8549 123.586 86.0657 123.357 87.0801C123.128 88.0946 122.965 88.9127 122.834 89.469C122.769 89.7308 122.736 89.9599 122.704 90.1235C122.671 90.2871 122.638 90.3526 122.638 90.3526C122.638 90.3526 122.638 90.2871 122.671 90.1235C122.704 89.9599 122.736 89.7308 122.769 89.469C122.867 88.9127 123.03 88.0619 123.227 87.0474C123.455 86.0329 123.717 84.8221 124.076 83.5131C124.436 82.2042 124.861 80.7643 125.384 79.259C125.907 77.7536 126.43 76.3465 126.953 75.1029C127.476 73.8267 127.999 72.7141 128.456 71.7978C128.914 70.8815 129.306 70.1288 129.568 69.6052C129.698 69.3762 129.796 69.1798 129.895 69.0162C130.025 68.8526 130.058 68.7871 130.058 68.7871Z" fill="#4F4F4F"/>
<path d="M111.754 109.432C111.754 109.432 111.656 109.432 111.492 109.432C111.329 109.432 111.067 109.399 110.773 109.366C110.479 109.334 110.087 109.301 109.629 109.268C109.204 109.203 108.681 109.17 108.126 109.072C107.014 108.908 105.707 108.679 104.269 108.385C102.831 108.09 101.262 107.697 99.6273 107.206C97.993 106.716 96.4567 106.192 95.0839 105.668C93.7111 105.145 92.5017 104.621 91.4884 104.13C90.9654 103.901 90.5405 103.672 90.1483 103.476C89.756 103.28 89.4292 103.116 89.135 102.952C88.8735 102.821 88.6774 102.69 88.514 102.625C88.3832 102.56 88.2852 102.494 88.2852 102.494C88.2852 102.494 88.3505 102.527 88.514 102.592C88.6774 102.658 88.8735 102.789 89.1677 102.92C89.4292 103.05 89.7887 103.214 90.181 103.41C90.5732 103.607 91.0308 103.836 91.5538 104.032C92.5671 104.49 93.7764 105.014 95.1493 105.538C96.5221 106.061 98.0583 106.585 99.66 107.076C101.294 107.566 102.863 107.959 104.301 108.254C105.74 108.548 107.047 108.81 108.126 108.974C108.681 109.072 109.172 109.137 109.597 109.203C110.022 109.268 110.414 109.301 110.708 109.334C111.002 109.366 111.231 109.399 111.427 109.432C111.656 109.432 111.754 109.432 111.754 109.432Z" fill="#4F4F4F"/>
<path d="M109.989 110.151C109.989 110.151 109.923 110.184 109.825 110.184C109.695 110.217 109.531 110.25 109.335 110.282C108.91 110.348 108.322 110.446 107.57 110.544C106.066 110.74 104.007 110.969 101.687 111.035C99.3658 111.1 97.3066 111.035 95.7703 110.937C95.0185 110.871 94.3975 110.839 93.9726 110.773C93.7765 110.74 93.613 110.74 93.4823 110.708C93.3842 110.708 93.3188 110.675 93.3188 110.675C93.3188 110.675 93.3842 110.675 93.4823 110.675C93.613 110.675 93.7765 110.675 93.9726 110.708C94.3975 110.74 95.0185 110.773 95.7703 110.806C97.2739 110.871 99.3658 110.937 101.654 110.839C103.942 110.773 106.034 110.577 107.537 110.38C108.289 110.282 108.878 110.217 109.302 110.151C109.499 110.119 109.662 110.119 109.793 110.086C109.923 110.151 109.989 110.151 109.989 110.151Z" fill="#4F4F4F"/>
<path d="M124.142 92.1532C124.142 92.1532 124.142 92.055 124.175 91.9241C124.207 91.7605 124.273 91.5314 124.338 91.2696C124.502 90.6805 124.698 89.8297 124.959 88.8152C125.482 86.7536 126.169 83.8738 127.051 80.7323C127.476 79.1615 127.934 77.6889 128.359 76.3145C128.784 74.9728 129.208 73.762 129.601 72.7802C129.797 72.2894 129.96 71.8312 130.124 71.4385C130.287 71.0458 130.418 70.7186 130.549 70.4241C130.679 70.1623 130.777 69.9659 130.843 69.8023C130.908 69.6714 130.941 69.5732 130.941 69.5732C130.941 69.5732 130.908 69.6387 130.875 69.8023C130.81 69.9659 130.712 70.1623 130.614 70.4241C130.483 70.6859 130.352 71.0458 130.222 71.4385C130.058 71.8312 129.895 72.2894 129.699 72.7802C129.339 73.7947 128.914 74.9728 128.489 76.3145C128.064 77.6562 127.64 79.1615 127.215 80.7323C126.365 83.8738 125.646 86.7209 125.09 88.7825C124.829 89.797 124.6 90.6478 124.404 91.2041C124.338 91.4659 124.273 91.695 124.207 91.8586C124.175 92.0877 124.142 92.1532 124.142 92.1532Z" fill="#4F4F4F"/>
<path d="M82.3692 91.6293C82.3692 91.6293 82.3038 91.5639 82.2058 91.433C82.1077 91.3021 81.9443 91.1058 81.7482 90.844C81.3559 90.3204 80.8656 89.535 80.31 88.4878C79.787 87.4406 79.264 86.1643 78.8064 84.6917C78.3488 83.2191 78.0219 81.5502 77.7604 79.8158C77.2701 76.3143 77.2048 73.0745 77.074 70.7838C77.0086 69.6385 76.9433 68.6895 76.9106 68.035C76.8779 67.7077 76.8779 67.4787 76.8452 67.2823C76.8452 67.1187 76.8452 67.0205 76.8452 67.0205C76.8452 67.0205 76.8779 67.1187 76.8779 67.2823C76.9106 67.4459 76.9433 67.7077 76.976 68.035C77.0413 68.6895 77.1067 69.6057 77.2048 70.7838C77.3682 73.1073 77.4663 76.3143 77.9565 79.8158C78.218 81.5502 78.5449 83.2191 78.9698 84.6917C79.3947 86.1643 79.9177 87.4406 80.4407 88.4878C80.9637 89.535 81.454 90.3204 81.8135 90.844C81.977 91.1058 82.1404 91.3021 82.2385 91.4657C82.3038 91.5312 82.3692 91.5966 82.3692 91.6293Z" fill="#4F4F4F"/>
<path d="M80.8329 84.3967C80.8329 84.4294 80.3753 84.5603 79.8523 84.8549C79.362 85.1494 79.0352 85.5094 79.0025 85.4766C78.9698 85.4439 79.264 85.0185 79.7869 84.724C80.3099 84.3967 80.8329 84.364 80.8329 84.3967Z" fill="#4F4F4F"/>
<path d="M80.5383 80.2082C80.5383 80.2737 79.95 80.3064 79.329 80.6336C78.7079 80.9609 78.3157 81.419 78.283 81.3863C78.2503 81.3536 78.5772 80.83 79.2636 80.47C79.9173 80.1428 80.5383 80.1755 80.5383 80.2082Z" fill="#4F4F4F"/>
<path d="M79.6232 76.347C79.6232 76.3797 79.1656 76.4125 78.6426 76.6743C78.1523 76.9361 77.8254 77.296 77.7928 77.2633C77.7601 77.2306 78.0216 76.8052 78.5772 76.5434C79.1002 76.2816 79.6232 76.3143 79.6232 76.347Z" fill="#4F4F4F"/>
<path d="M79.1658 72.3873C79.1658 72.42 78.7409 72.5182 78.2832 72.7146C77.8256 72.9109 77.4661 73.1727 77.4334 73.1073C77.4007 73.0745 77.7276 72.7473 78.2179 72.5509C78.7082 72.3546 79.1658 72.3546 79.1658 72.3873Z" fill="#4F4F4F"/>
<path d="M78.9043 69.1799C78.9043 69.2126 78.4794 69.3108 78.0218 69.5399C77.5642 69.7689 77.2373 70.0307 77.2046 69.998C77.1719 69.9653 77.4661 69.638 77.9564 69.409C78.4467 69.1472 78.9043 69.1472 78.9043 69.1799Z" fill="#4F4F4F"/>
<path d="M124.992 87.2446C124.959 87.2773 124.73 86.9828 124.338 86.8192C123.946 86.6555 123.586 86.721 123.586 86.6555C123.554 86.6228 123.946 86.4592 124.404 86.6555C124.861 86.8519 125.025 87.2446 124.992 87.2446Z" fill="#4F4F4F"/>
<path d="M126.201 83.972C126.168 84.0048 126.005 83.5139 125.482 83.1866C124.992 82.8594 124.469 82.8921 124.469 82.8594C124.469 82.8267 124.599 82.7939 124.796 82.7939C124.992 82.7939 125.286 82.8594 125.58 83.0557C125.842 83.2194 126.038 83.4812 126.136 83.6448C126.201 83.8411 126.234 83.972 126.201 83.972Z" fill="#4F4F4F"/>
<path d="M127.117 80.3724C127.084 80.4051 126.822 80.0124 126.299 79.7833C125.776 79.5543 125.319 79.6852 125.319 79.6524C125.319 79.6197 125.417 79.587 125.613 79.5543C125.809 79.5215 126.103 79.5543 126.365 79.6524C126.659 79.7506 126.855 79.947 126.986 80.1106C127.084 80.2415 127.149 80.3724 127.117 80.3724Z" fill="#4F4F4F"/>
<path d="M128.195 76.903C128.162 76.9358 127.999 76.6085 127.607 76.4122C127.247 76.2158 126.888 76.2486 126.855 76.2158C126.855 76.1831 126.953 76.1504 127.084 76.1504C127.247 76.1504 127.443 76.1831 127.672 76.2813C127.868 76.3795 128.032 76.5431 128.097 76.674C128.195 76.8049 128.195 76.903 128.195 76.903Z" fill="#4F4F4F"/>
<path d="M129.437 73.7283C129.404 73.761 129.208 73.3684 128.783 73.172C128.359 72.9757 127.934 73.0738 127.934 73.0411C127.934 73.0084 128.032 72.9757 128.195 72.9429C128.359 72.9102 128.62 72.9429 128.849 73.0411C129.078 73.1393 129.274 73.3356 129.372 73.4993C129.437 73.6302 129.47 73.7283 129.437 73.7283Z" fill="#4F4F4F"/>
<path d="M108.91 69.1807C108.91 69.1807 108.878 69.2461 108.845 69.3443C108.78 69.4425 108.714 69.6061 108.616 69.7697C108.42 70.1297 108.126 70.6533 107.734 71.275C107.341 71.8968 106.884 72.6822 106.361 73.5003C106.099 73.9257 105.805 74.3511 105.511 74.7766C105.217 75.202 104.89 75.6601 104.53 76.1183C104.432 76.2164 104.334 76.3473 104.203 76.4128C104.171 76.4455 104.105 76.4455 104.073 76.4455C104.007 76.4455 103.975 76.4128 103.942 76.4128C103.877 76.3801 103.811 76.3473 103.746 76.2819C103.517 76.0855 103.354 75.8892 103.158 75.6929C102.831 75.2674 102.504 74.8747 102.242 74.4493C101.687 73.6312 101.196 72.9113 100.804 72.2895C100.412 71.6677 100.118 71.1441 99.8889 70.7842C99.7908 70.6205 99.7255 70.4896 99.6601 70.3587C99.5947 70.2606 99.5947 70.1951 99.5947 70.1951C99.5947 70.1951 99.6274 70.2278 99.6928 70.326C99.7582 70.4242 99.8562 70.5551 99.9543 70.7187C100.183 71.0787 100.51 71.5696 100.902 72.1913C101.294 72.8131 101.785 73.533 102.373 74.3511C102.667 74.7438 102.961 75.1693 103.288 75.562C103.452 75.7583 103.648 75.9546 103.844 76.151C103.942 76.2164 104.073 76.3146 104.138 76.2819C104.236 76.2164 104.334 76.1183 104.432 76.0201C104.792 75.5947 105.119 75.1365 105.413 74.7111C105.707 74.2857 106.001 73.8276 106.263 73.4349C106.786 72.6167 107.276 71.8641 107.636 71.2423C108.028 70.6205 108.322 70.1297 108.551 69.737C108.649 69.5734 108.747 69.4425 108.812 69.3443C108.878 69.2461 108.91 69.1807 108.91 69.1807Z" fill="#4F4F4F"/>
<path d="M101.948 73.8602C101.915 73.8602 101.883 73.762 101.915 73.5656C101.915 73.3693 102.013 73.1075 102.177 72.8784C102.373 72.6494 102.602 72.5185 102.765 72.453C102.961 72.3876 103.059 72.4203 103.059 72.4203C103.059 72.453 102.602 72.5512 102.308 72.9766C101.948 73.402 101.981 73.8602 101.948 73.8602Z" fill="#4F4F4F"/>
<path d="M104.073 76.4122C104.04 76.4122 103.909 75.8559 103.909 75.1359C103.909 74.416 104.007 73.827 104.04 73.8597C104.073 73.8597 104.04 74.4487 104.073 75.1359C104.105 75.8559 104.138 76.4122 104.073 76.4122Z" fill="#4F4F4F"/>
<path d="M106.524 73.1404C106.492 73.1404 106.394 72.7805 106.034 72.5187C105.707 72.2242 105.315 72.1914 105.348 72.1587C105.348 72.126 105.446 72.126 105.609 72.126C105.773 72.1587 105.969 72.2242 106.165 72.3878C106.361 72.5514 106.459 72.7477 106.524 72.8786C106.557 73.0423 106.557 73.1404 106.524 73.1404Z" fill="#4F4F4F"/>
<path d="M108.126 70.456C108.093 70.456 108.028 70.0961 107.733 69.7688C107.439 69.4416 107.08 69.3761 107.08 69.3107C107.08 69.278 107.178 69.278 107.341 69.3107C107.505 69.3434 107.701 69.4743 107.864 69.6379C108.028 69.8015 108.126 70.0306 108.158 70.1615C108.158 70.3579 108.126 70.456 108.126 70.456Z" fill="#4F4F4F"/>
<path d="M100.313 71.4058C100.281 71.4058 100.248 71.2749 100.248 71.0786C100.248 70.8495 100.281 70.555 100.444 70.2605C100.608 69.966 100.836 69.7369 101.033 69.6387C101.229 69.5078 101.359 69.5078 101.359 69.5078C101.392 69.5405 100.902 69.7696 100.608 70.3259C100.281 70.8822 100.346 71.4058 100.313 71.4058Z" fill="#4F4F4F"/>
<g opacity="0.4">
<g opacity="0.4">
<path opacity="0.4" d="M95.7051 60.8685C96.3915 63.5519 97.5682 67.937 98.843 71.3731C98.9083 71.5367 98.9737 71.7003 99.0718 71.7985C99.3986 72.093 99.9543 71.9294 100.248 71.6022C100.543 71.3077 100.706 70.8822 100.935 70.555C101.164 70.195 101.523 69.8678 101.948 69.8678C102.275 69.8678 102.602 70.0641 102.831 70.3259C103.059 70.5877 103.223 70.8822 103.386 71.2095C103.484 71.3731 103.582 71.5367 103.779 71.5694C103.975 71.6022 104.171 71.4386 104.04 71.2422L102.929 68.3297C102.929 68.3297 102.406 66.2026 100.641 66.5299C98.6468 66.8898 99.5621 70.1623 99.5621 70.1623C99.5621 70.1623 95.7051 60.7376 95.7051 60.8685Z" fill="black"/>
</g>
</g>
<path d="M104.105 71.3405C104.105 71.3405 104.073 71.2751 104.007 71.1442C103.942 71.0133 103.877 70.8169 103.779 70.5878C103.582 70.0642 103.288 69.377 102.961 68.4935C102.863 68.2644 102.765 68.0353 102.667 67.8063C102.569 67.5772 102.438 67.3481 102.275 67.1518C101.915 66.7591 101.327 66.4973 100.739 66.5627C100.445 66.5954 100.15 66.7263 99.9216 66.9227C99.6928 67.1518 99.5947 67.4463 99.464 67.7735C99.3659 68.0681 99.3659 68.428 99.3986 68.7553C99.4313 69.1152 99.4967 69.4425 99.5947 69.8025C99.6274 69.9334 99.6601 70.0642 99.6928 70.1624L99.5293 70.1951C99.0717 68.8862 98.5488 67.6426 98.0585 66.5627C97.5682 65.4501 97.1433 64.4684 96.7837 63.6175C96.4242 62.7667 96.1953 62.0795 96.0319 61.5886C95.9665 61.3595 95.9012 61.1632 95.8685 61.0323C95.8358 60.9014 95.8031 60.8359 95.8358 60.8359C95.8358 60.8359 95.8685 60.9014 95.9012 61.0323C95.9339 61.1632 95.9992 61.3595 96.0973 61.5886C96.2607 62.0795 96.5222 62.734 96.8818 63.5848C97.2413 64.4029 97.6989 65.4174 98.1892 66.4973C98.6795 67.6099 99.2025 68.8207 99.6601 70.1624L99.4967 70.1951C99.464 70.0642 99.4313 69.9333 99.3986 69.8352C99.3005 69.4752 99.2352 69.1152 99.2025 68.788C99.1698 68.428 99.1698 68.0681 99.2679 67.7408C99.3659 67.4136 99.4967 67.0863 99.7582 66.8245C100.02 66.5955 100.346 66.4646 100.673 66.4318C101.327 66.3664 101.948 66.6609 102.34 67.0536C102.536 67.2499 102.667 67.5117 102.765 67.7735C102.863 68.0026 102.961 68.2317 103.027 68.4607C103.354 69.3443 103.615 70.0642 103.811 70.5551C103.909 70.7842 103.975 70.9805 104.007 71.1114C104.105 71.2423 104.138 71.3078 104.105 71.3405Z" fill="#4F4F4F"/>
<g opacity="0.4">
<g opacity="0.4">
<path opacity="0.4" d="M104.269 71.242C104.204 71.2747 104.236 71.4056 104.334 71.4383C104.4 71.471 104.498 71.4056 104.563 71.3729C104.988 71.0456 105.217 70.5547 105.511 70.1293C105.805 69.7039 106.23 69.2785 106.753 69.2785C107.309 69.2785 107.766 69.7366 108.028 70.2275C108.289 70.7184 108.485 71.2747 108.878 71.6674C110.872 68.7222 112.473 65.5152 113.617 62.1445C112.963 62.6027 112.539 63.3226 112.114 63.9771C111.068 65.7442 109.989 67.5114 108.943 69.2785C108.714 68.7549 108.453 68.2313 108.06 67.8713C107.636 67.4786 107.08 67.2496 106.524 67.3805C105.903 67.5114 105.478 68.1004 105.184 68.6567C104.726 69.4748 104.465 70.3911 104.334 71.3074" fill="black"/>
</g>
</g>
<path d="M146.009 97.4536C146.009 97.4536 145.911 97.3227 145.813 97.0936C145.682 96.8646 145.519 96.5046 145.29 96.0792C144.865 95.2283 144.342 94.0175 143.852 92.6431C143.362 91.2687 143.002 89.9924 142.773 89.0761C142.675 88.618 142.577 88.2253 142.512 87.9635C142.446 87.7017 142.446 87.5708 142.446 87.5381C142.446 87.5381 142.512 87.669 142.577 87.9308C142.642 88.2253 142.74 88.5853 142.871 89.0107C143.133 89.927 143.492 91.2032 143.983 92.5777C144.473 93.9521 144.996 95.1629 145.355 96.0464C145.551 96.4719 145.682 96.7991 145.813 97.0936C145.976 97.3227 146.042 97.4536 146.009 97.4536Z" fill="#4F4F4F"/>
<path d="M142.904 96.8324C142.904 96.8324 142.838 96.7015 142.773 96.4724C142.708 96.2434 142.61 95.8834 142.512 95.458C142.316 94.6072 142.087 93.3963 141.989 92.0874C141.891 90.7457 141.923 89.5349 141.989 88.6513C142.021 88.2259 142.054 87.8659 142.119 87.6041C142.152 87.375 142.185 87.2441 142.185 87.2441C142.185 87.2441 142.185 87.375 142.185 87.6368C142.152 87.8659 142.152 88.2259 142.119 88.684C142.087 89.5676 142.054 90.7457 142.152 92.0874C142.25 93.4291 142.446 94.6072 142.642 95.458C142.74 95.8834 142.806 96.2434 142.871 96.4724C142.904 96.7015 142.937 96.8324 142.904 96.8324Z" fill="#4F4F4F"/>
<path d="M152.906 68.1982C152.906 68.1982 152.971 68.231 153.167 68.2964L153.233 68.3291L153.167 68.3619C152.448 68.6237 149.964 69.409 146.924 69.9654C145.094 70.2926 143.427 70.4889 142.218 70.5871C141.596 70.6526 141.106 70.6526 140.779 70.6853C140.452 70.6853 140.256 70.6853 140.256 70.6853C140.256 70.6853 140.452 70.6526 140.779 70.6198C141.139 70.5871 141.629 70.5217 142.218 70.4889C143.427 70.358 145.094 70.1617 146.892 69.8017C149.931 69.2454 152.416 68.5255 153.135 68.3291V68.3619C152.971 68.2637 152.906 68.1982 152.906 68.1982Z" fill="#4F4F4F"/>
<path d="M150.095 66.7911C150.095 66.7911 150.128 66.7256 150.226 66.6929C150.324 66.6602 150.487 66.6929 150.651 66.7911C150.781 66.8893 150.977 67.0856 150.912 67.3801C150.879 67.511 150.814 67.6419 150.683 67.7074C150.552 67.7728 150.422 67.8056 150.258 67.7728C150.128 67.7401 149.964 67.7074 149.866 67.6092C149.768 67.511 149.703 67.3801 149.703 67.2492C149.703 66.9874 149.899 66.7911 150.062 66.7256C150.226 66.6275 150.389 66.6275 150.487 66.6602C150.585 66.6929 150.618 66.7256 150.618 66.7256C150.618 66.7584 150.389 66.6275 150.128 66.8238C149.997 66.922 149.866 67.0856 149.866 67.2492C149.866 67.4456 150.029 67.6092 150.291 67.6419C150.52 67.6747 150.749 67.5438 150.781 67.3801C150.814 67.1838 150.716 67.0202 150.585 66.922C150.454 66.8238 150.324 66.7911 150.258 66.7911C150.128 66.7584 150.095 66.7911 150.095 66.7911Z" fill="#4F4F4F"/>
<path d="M101.523 73.6963C101.523 73.6963 101.458 73.7617 101.36 73.8599C101.229 73.9581 101.066 74.1217 100.804 74.2853C100.314 74.6453 99.5947 75.1035 98.6141 75.5289C97.6662 75.9543 96.4242 76.347 95.0513 76.5433C94.3649 76.6415 93.6131 76.6742 92.8614 76.6742C92.1096 76.6415 91.3251 76.5433 90.5079 76.3797C88.939 76.0197 87.5008 75.4307 86.1607 75.0707C85.507 74.8744 84.8532 74.7435 84.2322 74.678C83.6112 74.6126 83.0555 74.6453 82.5325 74.7108C81.4865 74.8417 80.7021 75.2016 80.2118 75.5289C79.7215 75.8561 79.5254 76.1179 79.4927 76.1179C79.4927 76.1179 79.6888 75.8561 80.1791 75.4961C80.6694 75.1362 81.4539 74.7762 82.4998 74.6126C83.0228 74.5471 83.6112 74.5144 84.2322 74.5799C84.8532 74.6453 85.507 74.7762 86.1934 74.9398C87.5335 75.2998 88.9717 75.8888 90.5406 76.2161C91.3251 76.3797 92.1096 76.4779 92.8614 76.5106C93.6131 76.5433 94.3322 76.4779 95.0187 76.4124C96.3915 76.2161 97.6009 75.8561 98.5488 75.4307C99.4967 75.0053 100.248 74.5799 100.739 74.2526C101 74.089 101.164 73.9581 101.294 73.8599C101.425 73.729 101.523 73.6963 101.523 73.6963Z" fill="#FAFAFA"/>
<path d="M122.279 87.1787C122.279 87.1787 122.246 87.1787 122.181 87.146C122.116 87.1132 122.017 87.0478 121.887 87.0151C121.756 86.9496 121.593 86.8842 121.429 86.8187C121.233 86.7533 121.004 86.6551 120.775 86.5896C119.762 86.2951 118.193 86.1315 116.33 86.426C115.382 86.5569 114.369 86.8187 113.29 87.1132C112.212 87.4078 111.068 87.735 109.826 87.9968C108.583 88.2586 107.243 88.3895 105.87 88.2259C104.498 88.095 103.125 87.7023 101.719 87.2441C100.347 86.786 99.0064 86.2624 97.7316 85.837C96.4241 85.3788 95.1494 85.0516 93.9073 84.888C91.4231 84.5607 89.1351 84.7898 87.3047 85.2479C86.3895 85.477 85.5723 85.7715 84.8532 86.0333C84.4937 86.1969 84.1668 86.3279 83.9053 86.4588C83.6111 86.5896 83.3496 86.7205 83.1208 86.8514C82.892 86.9823 82.6959 87.0805 82.4998 87.2114C82.3364 87.3096 82.1729 87.4078 82.0749 87.4732C81.9768 87.5387 81.8788 87.6041 81.8134 87.6368C81.748 87.6696 81.7153 87.7023 81.7153 87.7023C81.7153 87.7023 81.748 87.6696 81.8134 87.6368C81.8788 87.6041 81.9768 87.5387 82.0749 87.4405C82.2056 87.375 82.3364 87.2769 82.4998 87.146C82.6632 87.0478 82.892 86.9169 83.1208 86.786C83.3496 86.6551 83.6111 86.5242 83.9053 86.3606C84.1995 86.2297 84.5264 86.0661 84.8532 85.9352C85.5723 85.6406 86.3568 85.3461 87.3047 85.117C89.1678 84.6589 91.4558 84.3971 93.9727 84.7243C95.2148 84.888 96.5222 85.2152 97.8297 85.6734C99.1371 86.0988 100.445 86.6224 101.817 87.0805C103.19 87.5387 104.563 87.9314 105.903 88.0623C107.243 88.2259 108.583 88.095 109.793 87.8332C111.035 87.5714 112.179 87.2441 113.258 86.9496C114.336 86.6551 115.349 86.3933 116.297 86.2624C118.193 85.9679 119.762 86.1642 120.775 86.4915C121.037 86.5569 121.266 86.6551 121.429 86.7205C121.625 86.8187 121.789 86.8842 121.887 86.9496C122.017 87.0151 122.083 87.0805 122.148 87.1132C122.246 87.146 122.279 87.146 122.279 87.1787Z" fill="#FAFAFA"/>
<path d="M105.805 73.467C105.805 73.4342 106.099 73.5651 106.655 73.6633C107.21 73.7288 107.995 73.7288 108.975 73.467C109.923 73.2379 111.002 72.747 112.211 72.2562C112.832 72.0271 113.486 71.798 114.205 71.6671C114.924 71.5362 115.676 71.5035 116.428 71.5362C117.964 71.6344 119.369 72.0271 120.579 72.518C121.788 73.0088 122.834 73.5979 123.684 74.1214C124.534 74.645 125.188 75.1032 125.645 75.3977C125.874 75.5613 126.037 75.6595 126.168 75.7577C126.299 75.8558 126.332 75.8886 126.332 75.8886C126.332 75.8886 126.266 75.8558 126.136 75.7904C126.005 75.6922 125.809 75.594 125.58 75.4632C125.122 75.1686 124.436 74.7432 123.586 74.2196C122.736 73.7288 121.69 73.1397 120.481 72.6488C119.271 72.158 117.866 71.7653 116.395 71.6671C115.643 71.6344 114.924 71.6671 114.205 71.798C113.519 71.9289 112.865 72.1253 112.244 72.3871C111.034 72.8452 109.956 73.3361 108.975 73.5651C107.995 73.7942 107.178 73.7942 106.622 73.696C106.099 73.5979 105.805 73.467 105.805 73.467Z" fill="#FAFAFA"/>
<path d="M124.926 65.2532C124.926 65.2532 124.763 65.3187 124.469 65.3841C124.305 65.4169 124.142 65.4823 123.913 65.515C123.684 65.5478 123.456 65.6132 123.161 65.6459C122.606 65.7441 121.952 65.8096 121.2 65.8423C120.448 65.875 119.631 65.875 118.781 65.8096C117.932 65.7441 117.114 65.6132 116.395 65.4496C115.676 65.286 115.022 65.0896 114.5 64.926C114.238 64.8278 114.009 64.7297 113.78 64.6642C113.584 64.5988 113.388 64.5006 113.257 64.4351C112.963 64.3042 112.833 64.2388 112.833 64.2061C112.833 64.2061 112.996 64.2388 113.29 64.3697C113.421 64.4351 113.617 64.5006 113.813 64.566C114.009 64.6315 114.271 64.7296 114.532 64.7951C115.055 64.9587 115.709 65.1551 116.428 65.286C117.147 65.4496 117.932 65.5478 118.781 65.6459C119.631 65.7114 120.448 65.7114 121.168 65.7114C121.887 65.6787 122.573 65.6132 123.096 65.5478C123.357 65.515 123.619 65.4823 123.848 65.4169C124.077 65.3841 124.24 65.3514 124.403 65.3187C124.73 65.2532 124.926 65.2205 124.926 65.2532Z" fill="#FAFAFA"/>
<path d="M78.8716 67.3478C78.8716 67.3478 78.9043 67.315 79.0023 67.2169C79.1004 67.1514 79.2311 67.0205 79.4272 66.8896C79.7868 66.5951 80.3425 66.2024 81.0616 65.7115C82.4671 64.7625 84.4936 63.5517 86.9778 62.7991C89.4619 62.0464 91.8807 62.0137 93.5477 62.3409C94.3975 62.5045 95.0513 62.7009 95.4762 62.8972C95.705 62.9627 95.8684 63.0609 95.9665 63.1263C96.0645 63.1918 96.1299 63.2245 96.1299 63.2245C96.1299 63.2245 95.8684 63.1263 95.4435 62.9627C94.9859 62.7991 94.3322 62.6027 93.515 62.4718C91.848 62.1773 89.4946 62.21 87.0105 62.9627C84.559 63.7154 82.5324 64.9262 81.0942 65.8424C80.3751 66.3006 79.8195 66.6933 79.4272 66.9551C79.2311 67.086 79.1004 67.1841 78.9696 67.2823C78.937 67.315 78.8716 67.3478 78.8716 67.3478Z" fill="#FAFAFA"/>
<path d="M120.024 101.675C120.024 101.675 119.991 101.675 119.926 101.708C119.86 101.708 119.762 101.741 119.664 101.773C119.533 101.806 119.403 101.839 119.207 101.839C119.108 101.839 119.01 101.872 118.912 101.872C118.814 101.872 118.684 101.872 118.585 101.872C117.638 101.904 116.297 101.675 114.696 101.152C113.911 100.89 113.029 100.595 112.114 100.334C111.166 100.039 110.152 99.8428 109.074 99.7446C106.884 99.5482 104.465 99.81 101.948 100.268C99.4313 100.726 97.0779 101.283 94.8879 101.544C92.698 101.806 90.6714 101.839 89.0371 101.577C87.3701 101.348 86.0953 100.857 85.2455 100.432C85.0494 100.334 84.8533 100.235 84.6898 100.137C84.5264 100.039 84.4283 99.9736 84.2976 99.9082C84.1995 99.8428 84.1342 99.81 84.0688 99.7446C84.0034 99.7119 84.0034 99.6791 84.0034 99.6791C84.0034 99.6791 84.0361 99.6791 84.1015 99.7119C84.1668 99.7446 84.2322 99.7773 84.3303 99.8428C84.4283 99.9082 84.5591 99.9736 84.7225 100.072C84.886 100.137 85.0821 100.235 85.2782 100.334C86.128 100.726 87.4028 101.217 89.0371 101.414C90.6714 101.643 92.6653 101.61 94.8553 101.348C97.0452 101.086 99.3986 100.497 101.915 100.039C104.432 99.581 106.851 99.3192 109.074 99.5482C110.185 99.6464 111.198 99.8755 112.146 100.17C113.094 100.465 113.944 100.759 114.728 101.021C116.297 101.544 117.638 101.806 118.585 101.773C118.716 101.773 118.814 101.773 118.912 101.773C119.01 101.773 119.108 101.773 119.207 101.741C119.37 101.741 119.533 101.708 119.664 101.675C119.762 101.643 119.86 101.643 119.926 101.643C119.991 101.675 120.024 101.675 120.024 101.675Z" fill="#FAFAFA"/>
<g opacity="0.3">
<g opacity="0.3">
<path opacity="0.3" d="M91.2271 103.934C92.6979 107.631 95.5743 110.249 99.5293 110.806C103.484 111.362 107.472 110.446 111.296 109.399C104.302 108.417 98.1238 107.435 91.2271 103.934Z" fill="black"/>
</g>
</g>
<path d="M121.037 114.111C121.037 114.111 121.004 114.111 120.939 114.078C120.873 114.046 120.775 114.013 120.677 113.948C120.416 113.849 120.056 113.686 119.631 113.489C118.716 113.097 117.409 112.475 115.742 111.755C114.925 111.395 114.009 111.068 112.963 110.806C111.95 110.577 110.806 110.479 109.629 110.642C109.041 110.741 108.453 110.871 107.864 111.035C107.276 111.231 106.688 111.46 106.099 111.69C104.923 112.213 103.746 112.835 102.536 113.489C101.327 114.144 100.118 114.733 98.9083 115.191C97.6989 115.649 96.4568 115.911 95.2475 115.944C94.0381 115.976 92.9267 115.682 91.9461 115.289C90.9656 114.897 90.1157 114.406 89.3312 113.948C88.5468 113.489 87.8604 113.097 87.2066 112.769C86.5529 112.475 85.9973 112.213 85.507 112.082C85.2782 111.984 85.0494 111.951 84.8532 111.919C84.6571 111.853 84.4937 111.853 84.3629 111.82C84.2322 111.788 84.1341 111.788 84.0688 111.788C84.0034 111.788 83.9707 111.755 83.9707 111.755C83.9707 111.755 84.0034 111.755 84.0688 111.755C84.1341 111.755 84.2322 111.788 84.3629 111.788C84.4937 111.788 84.6571 111.82 84.8532 111.853C85.0494 111.886 85.2782 111.919 85.507 112.017C85.9973 112.148 86.5529 112.377 87.2066 112.671C87.8604 112.966 88.5795 113.391 89.3312 113.817C90.1157 114.242 90.9656 114.733 91.9461 115.126C92.9267 115.518 94.0381 115.78 95.2148 115.747C96.3915 115.715 97.6009 115.453 98.8103 114.995C100.02 114.537 101.229 113.948 102.438 113.293C103.648 112.639 104.825 112.017 106.001 111.493C106.59 111.231 107.178 111.002 107.799 110.806C108.387 110.61 109.008 110.479 109.597 110.413C110.773 110.25 111.95 110.348 112.963 110.577C114.009 110.839 114.925 111.199 115.742 111.526C117.376 112.246 118.683 112.9 119.599 113.326C120.056 113.522 120.383 113.718 120.645 113.817C120.743 113.882 120.841 113.915 120.906 113.948C121.004 114.078 121.037 114.111 121.037 114.111Z" fill="#FAFAFA"/>
</g>
<defs>
<clipPath id="clip0">
<rect width="197" height="129" fill="white"/>
</clipPath>
</defs>
</svg>
