<svg width="20" height="12" viewBox="0 0 20 12" fill="none" xmlns="http://www.w3.org/2000/svg">
<path d="M19.916 1.13375C19.0543 2.84035 17.6888 4.28609 15.9663 5.3166L18.081 7.43137C18.3861 7.73645 18.3861 8.23109 18.081 8.53621C17.7759 8.84129 17.2813 8.84129 16.9762 8.53621L14.4953 6.05523C13.326 6.53918 12.0709 6.83027 10.7812 6.91406V10.4551C10.7812 10.8866 10.4315 11.2363 9.99998 11.2363C9.5685 11.2363 9.21873 10.8866 9.21873 10.4551V6.9141C7.92908 6.83031 6.67401 6.53922 5.50471 6.05527L3.02381 8.53625C2.71869 8.84137 2.22401 8.84137 1.91893 8.53625C1.61389 8.23117 1.61389 7.73652 1.91897 7.43141L4.03369 5.31664C2.31112 4.28613 0.945646 2.84039 0.0840054 1.13379C-0.110448 0.748593 0.0441617 0.278749 0.429318 0.0842571C0.814357 -0.110235 1.2844 0.0443363 1.47881 0.429531C2.92795 3.29973 6.1574 5.37695 10 5.37695C13.8455 5.37695 17.0733 3.29723 18.5212 0.429492C18.716 0.0436716 19.1861 -0.109961 19.5707 0.084219C19.9559 0.278711 20.1105 0.748593 19.916 1.13375Z" fill="#BDBDBD"/>
</svg>
