<svg width="20" height="16" viewBox="0 0 20 16" fill="none" xmlns="http://www.w3.org/2000/svg">
<path d="M6.48462 12.2188C6.48462 10.2802 8.06169 8.70312 10.0002 8.70312C11.9387 8.70312 13.5157 10.2802 13.5157 12.2188C13.5157 14.1573 11.9387 15.7344 10.0002 15.7344C8.06169 15.7344 6.48462 14.1573 6.48462 12.2188Z" fill="#4F4F4F"/>
<path d="M19.916 10.3682C19.0543 8.6616 17.6888 7.21586 15.9663 6.18535L18.081 4.07059C18.3861 3.76551 18.3861 3.27086 18.081 2.96574C17.7759 2.66066 17.2813 2.66066 16.9762 2.96574L14.4953 5.44672C13.326 4.96277 12.0709 4.67168 10.7812 4.58789V1.04688C10.7812 0.615391 10.4315 0.265625 9.99998 0.265625C9.5685 0.265625 9.21873 0.615391 9.21873 1.04688V4.58785C7.92908 4.67164 6.67401 4.96273 5.50471 5.44668L3.02381 2.9657C2.71869 2.66059 2.22401 2.66059 1.91893 2.9657C1.61389 3.27078 1.61389 3.76543 1.91897 4.07055L4.03369 6.18531C2.31112 7.21582 0.945646 8.66156 0.0840054 10.3682C-0.110448 10.7534 0.0441617 11.2232 0.429318 11.4177C0.814357 11.6122 1.2844 11.4576 1.47881 11.0724C2.92795 8.20223 6.1574 6.125 10 6.125C13.8455 6.125 17.0733 8.20473 18.5212 11.0725C18.716 11.4583 19.1861 11.6119 19.5707 11.4177C19.9559 11.2232 20.1105 10.7534 19.916 10.3682Z" fill="#4F4F4F"/>
</svg>
