<svg width="16" height="16" viewBox="0 0 16 16" fill="none" xmlns="http://www.w3.org/2000/svg">
<path d="M6.66797 0.96582H9.34204V1.41577H10.3077V0.902832C10.3079 0.405029 9.90308 0 9.40552 0H6.60449C6.10693 0 5.70215 0.405029 5.70215 0.902832V1.41577H6.66797V0.96582Z" fill="#BDBDBD"/>
<path d="M12.5377 5.24219H3.47175C3.22333 5.24219 3.02778 5.4541 3.0478 5.70178L3.80573 15.0739C3.84797 15.597 4.28437 16 4.80866 16H11.2006C11.7249 16 12.1613 15.597 12.2036 15.0737L12.9615 5.70178C12.9816 5.4541 12.7861 5.24219 12.5377 5.24219ZM5.66694 15.0004C5.65681 15.001 5.64667 15.0013 5.63666 15.0013C5.38349 15.0013 5.17097 14.8042 5.15522 14.5481L4.68024 6.85413C4.66389 6.58789 4.8664 6.35876 5.13251 6.34241C5.39777 6.32629 5.62788 6.52832 5.64423 6.79468L6.11909 14.4886C6.13557 14.7549 5.93305 14.9839 5.66694 15.0004ZM8.49299 14.5184C8.49299 14.785 8.2768 15.0012 8.01008 15.0012C7.74335 15.0012 7.52717 14.785 7.52717 14.5184V6.82434C7.52717 6.55762 7.74335 6.34143 8.01008 6.34143C8.27668 6.34143 8.49299 6.55762 8.49299 6.82434V14.5184ZM11.3292 6.85278L10.8757 14.5468C10.8607 14.8033 10.6478 15.0012 10.3941 15.0012C10.3846 15.0012 10.3749 15.001 10.3653 15.0005C10.0991 14.9847 9.89594 14.7562 9.91169 14.49L10.3651 6.7959C10.3807 6.52966 10.6085 6.32654 10.8754 6.34229C11.1417 6.35791 11.3448 6.58655 11.3292 6.85278Z" fill="#BDBDBD"/>
<path d="M14.2077 3.75171L13.8906 2.80103C13.807 2.55042 13.5724 2.38135 13.3081 2.38135H2.70152C2.43736 2.38135 2.20262 2.55042 2.11912 2.80103L1.80199 3.75171C1.74083 3.93506 1.82042 4.12207 1.96898 4.21533C2.02952 4.2533 2.10118 4.27612 2.17992 4.27612H13.8298C13.9086 4.27612 13.9803 4.2533 14.0408 4.21521C14.1893 4.12195 14.2689 3.93494 14.2077 3.75171Z" fill="#BDBDBD"/>
</svg>
